<?xml version="1.0" encoding="utf-8"?>
<!-- Generator: Adobe Illustrator 16.0.0, SVG Export Plug-In . SVG Version: 6.00 Build 0)  -->
<!DOCTYPE svg PUBLIC "-//W3C//DTD SVG 1.1//EN" "http://www.w3.org/Graphics/SVG/1.1/DTD/svg11.dtd">
<svg version="1.1" id="レイヤー_1" xmlns="http://www.w3.org/2000/svg" xmlns:xlink="http://www.w3.org/1999/xlink" x="0px"
	 y="0px" width="347.51px" height="382.921px" viewBox="0 0 347.51 382.921" enable-background="new 0 0 347.51 382.921"
	 xml:space="preserve">
<g>
	<g>
		<path fill-rule="evenodd" clip-rule="evenodd" d="M315.403,133.643c-0.756-0.773-1.51-1.549-2.268-2.319
			c-1.391-1.401-2.781-2.797-4.227-4.247c-2.568,3.578-2.994,3.618-5.615,0.788c0.357-0.621,0.574-1.564,1.139-1.874
			c2.93-1.611,1.65-2.975-0.004-4.597c-1.614-1.585-2.962-3.434-4.54-5.06c-3.01-3.106-6.156-6.083-9.133-9.221
			c-1.25-1.317-2.208-2.906-2.922-4.654c4.81,2.251,8.603,5.458,11.603,9.682c1.28,1.803,3.087,3.227,4.621,4.856
			c2.969,3.157,5.803,6.451,8.908,9.464c2.012,1.954,4.424,3.497,6.633,5.249c1.865,1.475,3.637,3.077,5.576,4.44
			c0.902,0.636,2.113,0.838,3.18,1.24c0.197,0.56,0.232,1.345,0.629,1.633c1.652,1.203,3.412,2.258,4.6,3.022
			c1.875-0.704,3.291-1.233,4.713-1.768c-1.086-5.097-4.193-6.357-8.227-3.236c-0.436,0.337-1.178,0.281-1.781,0.409
			c-2.379-1.424-2.389-2.897,0.416-4.509c-1.725-1.362-3.164-2.568-4.691-3.643c-0.348-0.242-1.01-0.047-1.525-0.026
			c-0.816,0.03-1.863,0.404-2.389,0.035c-0.564-0.393-0.961-1.526-0.867-2.263c0.336-2.632-2.352-5.355-4.947-5.125
			c-1.018,0.093-2.109-0.65-3.229-1.033c0.621-2.253,2.574-4.444-1.018-5.302c-0.123-0.03,0.16-1.774,0.256-2.718
			c0.824,0.091,1.918-0.125,2.426,0.323c2.777,2.448,5.328,5.15,8.113,7.588c3.408,2.985,6.938,5.84,10.49,8.656
			c1.395,1.104,2.99,1.952,4.707,3.053c0.061-0.778,0.352-1.538,0.105-1.81c-2.35-2.593-0.916-5.869-1.697-8.673
			c-0.963-3.469-2.605-6.747-3.953-10.109c-0.275-0.685-0.467-1.415-0.824-2.054c-0.73-1.31-1.531-2.582-2.332-3.854
			c-0.248-0.397-0.666-0.707-0.85-1.125c-0.955-2.188-1.859-4.4-2.777-6.602c-0.252,0.232-0.504,0.464-0.756,0.694
			c-1.09-0.205-2.465-0.091-3.172-0.723c-0.529-0.474,0.041-2.003-0.303-2.897c-0.719-1.863-1.719-3.617-2.725-5.664
			c-1.176,0.797-1.709,1.457-2.225,1.445c-0.926-0.023-2.082-0.207-2.68-0.793c-0.398-0.395-0.328-2.067,0.094-2.364
			c2.475-1.731,1.457-2.802-0.381-4.128c-1.104-0.797-1.916-1.994-2.859-3.011l0.027,0.068c-1.271-2.147-2.504-4.319-3.828-6.434
			c-1.846-2.951-3.698-5.901-5.67-8.768c-2.043-2.974-4.241-5.838-6.354-8.763c-2.393-3.313-4.694-6.693-7.194-9.923
			c-0.619-0.799-1.936-1.018-2.767-1.706c-0.848-0.707-1.588-1.601-2.196-2.53c-0.431-0.66-0.553-1.519-0.829-2.282
			c-0.851-2.36-1.844-4.342-5.024-2.893c-0.306,0.14-2.18-1.779-2.01-2.188c1.424-3.367-1.602-3.685-3.198-4.489
			c-1.742-0.878-3.363-1.464-4.7-3.164c-1.124-1.433-3.218-2.191-4.988-3.023c-2.873-1.35-5.846-2.484-8.751-3.768
			c-1.335-0.592-2.611-1.322-3.392-1.724c-1.335,1.243-2.208,2.312-3.323,2.946c-0.358,0.203-1.861-0.641-1.976-1.189
			c-0.211-1,0.224-2.133,0.471-3.762c-5.83-1.125-12.187-2.376-18.559-3.537c-0.596-0.106-1.287,0.473-1.952,0.551
			c-0.778,0.095-2.184,0.207-2.279-0.06c-0.921-2.582-3.451-2.008-5.053-2.194c-6.552-0.767-13.162-1.275-19.761-1.387
			c-9.855-0.167-19.293,2.321-28.564,5.432c-1.177,0.395-2.149,1.415-3.257,2.177c-0.548-2.035,0.581-3.85,2.974-4.882
			c7.813-3.364,15.698-6.266,24.423-6.372c4.757-0.059,9.506-1.375,14.255-1.362c8.282,0.025,16.551,0.641,24.657,2.667
			c4.472,1.12,9.063,1.768,13.515,2.951c5.422,1.438,10.777,3.143,16.109,4.891c1.402,0.458,2.663,1.421,3.912,2.268
			c5.801,3.94,12.023,7.414,17.227,12.03c4.801,4.261,9.695,8.678,12.94,14.518c1.419,2.553,3.812,4.546,5.517,6.967
			c3.633,5.163,7.042,10.483,10.669,15.65c2.525,3.599,5.279,7.038,7.895,10.571c4.604,6.217,9.418,12.293,13.672,18.74
			c2.59,3.93,4.305,8.44,6.402,12.696c1.076,2.185,2.418,4.292,3.127,6.594c0.84,2.721,1.053,5.629,1.668,8.426
			c0.664,3.011,1.305,6.048,2.271,8.97c1.66,5.03,3.17,10.055,2.58,15.434c-0.367,3.354-4.258,5.931-7.523,5.194
			c-2.25-0.509-4.549-0.811-7.26-1.277c0.572,3.087,1.004,5.722,1.559,8.331c0.494,2.309-0.82,5.776-3.076,6.851
			c-5.24,2.5-6.254,6.949-6.393,12.182c-0.119,4.389-0.908,8.756-1.332,13.141c-0.402,4.156-0.863,8.314-1.02,12.482
			c-0.207,5.485,0.031,10.941-1.74,16.32c-0.83,2.521-0.779,5.492-0.477,8.188c0.439,3.875-1.16,7.477-4.664,8.814
			c0,0.891,0,1.822,0,2.428c3.336-0.225,6.574-0.707,9.783-0.549c1.508,0.072,3.23,1.074,4.381,2.16
			c7.117,6.717,10.867,14.959,9.975,24.831c-0.277,3.07-1.584,6.084-2.656,9.035c-1.371,3.789-2.428,7.856-4.613,11.141
			c-3.209,4.82-6.766,9.654-13.289,10.697c-2,0.318-3.85,1.482-5.832,2.039c-2.773,0.777-5.609,1.348-8.492,2.023
			c0.701,5.088-0.25,10.232-3.388,14.822c-3.03,4.43-6.019,8.92-9.426,13.053c-1.821,2.211-4.521,3.689-6.764,5.57
			c-3.336,2.799-6.603,5.682-9.931,8.494c-4.321,3.652-8.389,7.701-13.079,10.795c-6.073,4.004-12.576,7.387-19.042,10.752
			c-4.21,2.193-8.706,3.83-13.029,5.813c-1.776,0.813-3.341,2.146-5.166,2.762c-3.266,1.102-6.654,1.846-9.995,2.719
			c-0.366,0.096-0.816-0.045-1.138,0.111c-7.462,3.65-15.633,3.182-23.57,4.082c-2.155,0.244-4.29,0.766-6.452,0.887
			c-2.497,0.145-5.013-0.012-7.52-0.035c-1.294-0.012-2.595,0.074-3.88-0.035c-3.208-0.277-6.421-0.574-9.616-0.988
			c-6.147-0.799-12.279-1.705-18.424-2.525c-7.309-0.977-14.744-1.377-21.899-3.006c-7.112-1.619-13.894-4.484-20.415-7.98
			c-3.694-1.977-7.184-3.932-10.26-6.861c-2.726-2.598-6.292-4.293-9.131-6.793c-4.291-3.777-8.434-7.754-12.344-11.926
			c-4.456-4.75-6.573-10.807-8.466-16.91c-0.964-3.105-1.789-6.26-2.904-9.307c-0.255-0.701-1.392-1.223-2.23-1.539
			c-3.856-1.447-7.885-2.512-11.607-4.24c-6.082-2.822-11.512-6.648-15.434-12.258c-3.275-4.684-5.011-10.051-5.55-15.6
			c-0.528-5.438-0.862-11.11,0.125-16.418c0.841-4.527,3.68-8.685,5.636-13.003l-0.049,0.014c3.458-1.834,3.796-2.801,2.567-7.178
			c-0.532-1.889-0.913-3.826-1.58-5.664c-0.515-1.412-0.281-3.396-2.613-3.758c-0.381-0.061-0.995-2.332-0.676-2.598
			c2.862-2.396,0.927-5.029,0.571-7.549c-0.59-4.197-1.205-8.391-1.935-12.563c-0.37-2.107-1.064-4.155-1.518-6.251
			c-0.297-1.376-0.776-2.845-0.56-4.171c0.476-2.916-1.445-4.523-3.38-5.213c-4.998-1.781-5.764-5.89-6.447-10.152
			c-1.101-6.873,1.622-13.211,2.987-19.728c0.237-1.126,1.259-2.089,2-3.257c-1.635-2.107-3.155-1.415-4.646,0.188
			c-1.894,2.04-3.62,4.436-7.188,3.03c0-1.102-0.504-2.732,0.09-3.455c2.11-2.558,0.788-5.067,0.367-7.585
			c-1.217-7.289-1.424-14.41,1.842-21.37c2.298-4.898,3.604-10.312,6.25-14.986c4.175-7.367,7.109-15.25,10.729-22.837
			c2.24-4.698,5.109-9.108,7.867-13.538c2.49-4.001,5.004-8.02,7.887-11.735c3.273-4.217,7.088-8.013,10.45-12.169
			c3.095-3.824,5.854-7.916,8.842-11.828c4.624-6.05,9.333-12.035,13.975-18.071c2.621-3.403,4.771-7.297,7.874-10.173
			c3.971-3.68,7.409-8.12,12.65-10.334c2.399-1.01,4.568-2.587,6.991-3.52c2.934-1.131,5.989-2.019,9.059-2.715
			c5.429-1.232,10.657,0.411,15.847,1.645c4.56,1.084,9.012,2.621,13.542,3.845c4.708,1.271,9.145,6.651,9.614,11.532
			c0.097,1.02,1.044,1.959,1.888,3.436c-1.113,0.073-2.291,0.486-3.074,0.098c-0.692-0.344-1.243-1.55-1.331-2.426
			c-0.302-3.066-1.954-5.453-4.329-6.9c-6.494-3.957-13.691-5.62-21.249-6.672c-6.148-0.857-12.061-1.318-17.798,1.01
			c-3.676,1.494-7.307,3.399-10.478,5.762c-3.748,2.792-7.321,5.987-10.36,9.53c-4.857,5.667-9.226,11.755-13.782,17.68
			c-4.827,6.275-9.639,12.562-14.446,18.856c-6.026,7.89-12.321,15.596-17.959,23.758c-3.715,5.376-6.652,11.324-9.602,17.183
			c-2.24,4.444-3.908,9.17-5.917,13.733c-0.98,2.223-2.031,4.435-3.273,6.519c-3.485,5.855-6.106,11.968-7.397,18.742
			c-1.001,5.258-0.827,10.271,0.658,15.345c0.306,1.048,0.153,2.231,0.204,3.248c1.304-0.646,2.481-1.387,3.762-1.833
			c3.743-1.301,7.75,0.414,9.211,3.929c0.218,0.521,0.14,1.399-0.169,1.868c-2.728,4.124-3.094,9.037-4.726,13.504
			c-1.586,4.35-0.667,8.047,0.955,11.898c0.244,0.577,0.688,1.563,0.995,1.546c3.004-0.172,4.452,2.31,6.533,3.675
			c1.461,0.96,2.059,1.949,1.68,4.086c-0.474,2.688,0.065,5.631,0.55,8.396c0.87,4.94,2.021,9.832,3.058,14.744
			c0.214,1.012,0.432,2.023,0.706,3.307c0.542-0.141,1.236-0.566,1.62-0.373c0.804,0.406,1.81,1.025,2.038,1.771
			c0.197,0.643-0.341,1.947-0.948,2.32c-1.835,1.123-1.859,2.451-1.343,4.316c1.029,3.715,1.808,7.502,2.721,11.396
			c3.073-0.559,6.133-1.113,9.553-1.734c0-2.605,0.028-5.508-0.006-8.41c-0.065-5.592-0.144-11.186-0.261-16.779
			c-0.053-2.523-0.262-5.047-0.313-7.572c-0.049-2.402-0.04-4.81,0.046-7.209c0.156-4.402,0.27-8.814,0.621-13.203
			c0.346-4.336,0.908-8.656,1.484-12.969c0.298-2.226,0.99-4.408,1.181-6.636c0.074-0.853-0.901-1.747-1.136-2.69
			c-0.238-0.961-0.479-2.755-0.159-2.895c3.982-1.727,2.31-5.578,3.36-8.366c0.668-1.785,1.424-3.563,2.411-5.183
			c0.297-0.493,1.492-0.439,1.998-0.565c-0.809,3.922-1.535,7.309-2.2,10.71c-0.579,2.953-1.141,5.911-1.601,8.882
			c-0.486,3.141-0.878,6.299-1.245,9.459c-0.46,3.941-1.118,7.887-1.206,11.843c-0.098,4.272,0.414,8.56,0.562,12.841
			c0.165,4.747,0.207,9.496,0.328,14.246c0.1,4.031-0.1,8.107,0.432,12.084c0.864,6.441,2.198,12.82,3.396,19.219
			c0.151,0.799,0.709,1.52,1.053,2.291c0.925,2.064-0.102,4.904-2.17,5.439c-2.14,0.557-3.32-0.42-3.854-2.672
			c-0.302-1.275-1.22-2.584-2.221-3.479c-2.839-2.537-3.838-2.49-7.29-0.211c0.039-0.602,0.072-1.094,0.102-1.588
			c-0.158-0.141-0.316-0.279-0.476-0.42c-0.672,0.795-1.232,1.738-2.038,2.35c-1.366,1.043-2.892,1.869-4.34,2.807
			c-0.641,0.416-1.54,0.73-1.84,1.336c-1.865,3.76-4.247,7.435-5.183,11.438c-0.913,3.906-0.75,8.225-0.221,12.254
			c0.479,3.655,2.256,7.12,3.157,10.745c1.196,4.82,4.804,7.377,8.385,10.285c6.212,5.043,13.67,6.813,21.014,9.008
			c0.579,0.176,1.364-0.145,1.843,0.135c0.917,0.535,2.33,1.266,2.409,2.027c0.602,5.949,2.367,11.455,4.637,17.002
			c2.606,6.381,7,11.004,11.663,15.754c3.592,3.658,8.085,6.156,11.563,9.666c3.62,3.656,8.64,4.625,12.239,8.078
			c1.571,1.508,3.996,2.199,6.125,3.037c3.736,1.469,7.458,3.1,11.335,4.047c4.517,1.109,9.187,1.609,13.803,2.283
			c4.575,0.668,9.168,1.219,13.751,1.826c0.841,0.113,1.675,0.275,2.516,0.389c5.042,0.668,10.072,1.471,15.132,1.961
			c5.417,0.523,10.731,1.652,16.344,0.291c5.046-1.225,10.411-1.119,15.633-1.621c4.338-0.418,8.787-0.404,12.978-1.434
			c4.057-0.992,7.928-2.904,11.74-4.713c10.801-5.117,21.602-10.242,32.236-15.691c2.622-1.344,4.581-3.969,6.889-5.951
			c3.561-3.057,7.208-6.012,10.728-9.113c2.821-2.484,5.485-5.141,8.26-7.674c1.326-1.213,2.719-2.361,4.128-3.475
			c4.605-3.646,7.985-8.236,10.236-13.615c1.309-3.133,3.093-6.393,3.149-9.625c0.045-2.729,0.016-5.289,1.135-7.752
			c0.333-0.732,1.027-1.402,1.722-1.838c0.95-0.596,1.528-0.373,2.002,0.906c0.221,0.6,1.873,1.084,2.771,0.945
			c3.146-0.48,6.605-0.609,9.277-2.082c3.322-1.836,6.443-4.057,8.842-7.566c2.512-3.672,3.414-7.637,4.758-11.575
			c1.297-3.805,2.027-7.615,0.201-11.566c-1.273-2.753-1.701-5.996-3.352-8.449c-1.611-2.393-4.176-4.223-6.563-5.975
			c-1.178-0.865-5.201,1.926-6.752,3.82c-1.262,1.543-2.904,2.865-4.602,3.926c-0.729,0.455-2.334,0.369-2.984-0.158
			c-0.715-0.578-1.219-2.014-1.074-2.963c0.76-5,2.27-9.941,2.516-14.951c0.227-4.623-0.816-9.309-1.297-13.963
			c-0.039-0.381-0.041-0.768-0.053-1.15c-0.221-7.461-0.451-14.919-0.658-22.38c-0.098-3.641,0.514-7.435-2.486-10.398
			c-0.213-0.21-0.189-0.989,0.029-1.25c3.232-3.845,0.771-8.19,1.051-12.279c0.053-0.748-0.877-1.563-1.359-2.358
			c2.176-3.891,1.635-7.975,0.982-12.146c-0.379-2.415-0.176-4.912-0.355-7.363c-0.109-1.489-0.588-2.955-0.627-4.439
			c-0.014-0.598,0.59-1.392,1.141-1.747c0.262-0.17,1.303,0.332,1.557,0.778c0.859,1.501,1.998,3.06,2.176,4.69
			c0.648,5.945,0.936,11.931,1.393,17.898c0.186,2.463,0.416,4.924,0.707,7.375c0.068,0.58,0.459,1.125,0.406,0.998
			c1.705-0.208,2.98-0.604,4.121-0.363c0.365,0.076,0.842,2.385,0.447,2.723c-0.875,0.755-2.268,0.91-4.125,1.54
			c0.148,1.376,0.449,3.646,0.617,5.925c0.084,1.141-0.178,2.307-0.076,3.445c0.047,0.511,0.846,1.426,0.885,1.402
			c2.395-1.316,2.492,0.63,2.959,2.033c-1.154,1.131-3.314,2.284-3.289,3.389c0.131,5.719,0.82,11.422,1.313,17.131
			c0.355-0.014,0.709-0.023,1.064-0.035c0.277-6.85,0.557-13.7,0.832-20.549c-0.23-3.904,1.357-7.516,1.447-11.518
			c0.18-7.848,1.387-15.939,8.631-21.229c0.396-0.29,0.816-1.032,0.719-1.44c-0.674-2.797,0.049-5.794-1.939-8.454
			c-1.855-2.484-3.543-5.37-2.16-8.813c0.428-0.435,0.857-0.872,1.287-1.306c1.061-0.19,2.121-0.383,4.145-0.75
			c-4.396-3.354-8.076-6.164-11.754-8.97C315.739,133.97,315.571,133.806,315.403,133.643z"/>
		<path fill-rule="evenodd" clip-rule="evenodd" d="M212.867,53.562c6.952,1.424,13.371,4.18,18.922,8.545
			c4.777,3.754,9.175,7.989,13.723,12.032c2.177,1.935,4.518,3.734,6.429,5.908c5.616,6.379,9.592,13.742,12.384,21.757
			c0.24,0.685,0.677,1.304,0.767,1.473c1.19-0.444,2.239-1.178,3.192-1.067c0.587,0.07,1.624,1.699,1.416,2.147
			c-0.563,1.22-1.679,2.187-2.599,3.28c0,2.243-0.06,4.798,0.049,7.346c0.023,0.551,0.553,1.183,1.012,1.599
			c4.47,4.05,9.096,7.932,13.418,12.13c2.719,2.636,4.846,5.871,7.5,8.582c3.835,3.922,7.987,7.532,11.816,11.458
			c0.927,0.953,1.842,2.902,1.463,3.903c-0.497,1.315-2.155,2.4-3.561,3.072c-0.667,0.318-2.2-0.265-2.831-0.927
			c-5.838-6.139-11.549-12.399-17.326-18.596c-4.331-4.644-8.777-9.179-13.034-13.888c-2.03-2.244-3.596-4.909-5.622-7.158
			c-2.579-2.86-5.418-5.482-8.126-8.225c-0.779-0.787-1.645-1.546-2.201-2.479c-1.796-3.023-5.059-4.021-7.792-5.671
			c-2.895-1.744-6.065-3.034-9.686-4.802c1.35,2.979,2.433,5.417,3.587,7.82c0.084,0.176,0.688,0.082,1.041,0.156
			c1.976,0.425,2.644,1.991,1.795,3.794c-0.292,0.623-0.313,1.494-0.158,2.187c1.089,4.848,2.921,9.636,3.226,14.525
			c0.401,6.403,3.366,12.241,3.37,18.598c0.003,1.757-0.697,3.929-1.863,5.163c-1.301,1.373-2.93,0.309-4.415-0.95
			c-4.147-3.513-7.025-7.911-9.673-12.537c-0.541-0.948-1.262-1.793-2.453-2.662c-2.204,12.197-4.812,24.148-9.668,35.664
			c6.165,1.083,11.649,2.047,17.135,3.012c0.036,0.243,0.067,0.487,0.103,0.731c-2.094,0.249-4.187,0.497-6.444,0.764
			c0.519,0.282,0.995,0.698,1.532,0.805c5.99,1.203,12.027,2.179,17.967,3.58c5.601,1.319,11.063,3.241,16.664,4.567
			c2.546,0.603,3.116,2.311,2.204,3.883c-0.711,1.23-3.07,2.581-4.284,2.27c-7.252-1.873-14.366-4.27-21.566-6.366
			c-3.093-0.899-6.284-1.452-9.41-2.253c-1.535-0.393-2.997-1.078-4.533-1.479c-3.531-0.917-7.086-1.742-10.917-2.674
			c-0.947,1.025-2.018,2.338-3.25,3.48c-2.538,2.35-4.371,1.668-5.299-1.58c-0.435-1.517-1.817-2.743-2.364-4.252
			c-0.991-2.738-0.296-3.754,2.001-3.668c0.998-3.395,2.176-6.726,2.924-10.15c0.604-2.761,0.888-5.627,0.962-8.457
			c0.145-5.549,0.299-11.12-0.03-16.654c-0.342-5.75-0.677-11.623-2.157-17.134c-0.755-2.816-0.453-6.784-4.081-8.496
			c-0.309-0.147-0.649-0.911-0.526-1.181c1.485-3.196-0.739-5.287-2.128-7.817c-2.239,1.719-4.433,3.257-6.441,5.011
			c-0.873,0.764-1.252,2.065-2.051,2.945c-1.222,1.348-2.614,2.542-4.095,3.955c-1.159-4.41-0.357-5.46,3.29-6.798
			c2.828-1.037,4.498-3.313,4.069-6.624c-7.479,1.921-14.74,6.424-16.132,9.75c-1.341,0.491-2.424,1.05-3.569,1.257
			c-0.917,0.166-2.347,0.251-2.76-0.262c-0.498-0.618-0.555-2.205-0.084-2.832c0.598-0.797,1.822-1.984,3.044-0.372
			c0.144,0.191,0.437,0.265,0.641,0.384c1.487-1.422,2.893-2.767,4.298-4.115c-0.235-0.069-0.472-0.142-0.709-0.213
			c0.08-1.081-0.183-2.373,0.324-3.188c0.706-1.141,1.808-1.004,3.338-0.623c1.661,0.411,3.792-0.716,5.62-1.422
			c2.422-0.932,4.749-2.107,7.263-3.243c-2.66-3.192-4.949-7.414-10.195-6.284c-2.549,0.55-5.156,1.877-7.188,3.526
			c-3.354,2.723-6.259,5.992-9.789,9.458c1.403,0.414,2.234,0.66,3.89,1.148c-2.732,0.399-4.64,0.882-6.543,0.86
			c-0.808-0.01-2.239-1.06-2.254-1.667c-0.021-0.866,0.881-2.397,1.59-2.522c2.2-0.396,2.804-2.323,4.098-3.548
			c2.639-2.498,5.253-5.03,7.75-7.667c1.455-1.536,2.66-3.307,3.977-4.97c0.121,0.318,0.243,0.636,0.361,0.952
			c1.379,0,2.846,0.307,4.121-0.058c3.63-1.039,5.982-0.813,8.694,1.126c0.929-0.692,1.783-1.331,2.995-2.235
			c1.299,3.657,2.479,6.977,3.668,10.32c1.671-0.835,2.737-1.624,3.908-1.829c0.499-0.088,1.56,0.964,1.727,1.654
			c0.15,0.616-0.38,1.777-0.954,2.117c-1.648,0.975-1.351,2.218-0.8,3.526c1.833,4.373,3.698,8.731,5.605,13.068
			c0.335,0.763,0.778,1.667,1.438,2.059c2.449,1.455,3.462,2.772,0.95,5.302c-0.667,0.671,0.144,2.832,0.318,4.305
			c0.594,4.979,1.524,9.942,1.729,14.934c0.202,4.914-0.323,9.86-0.521,14.793c-0.03,0.759-0.004,1.519,0.497,2.344
			c1.253-5.757,2.674-11.484,3.686-17.283c0.571-3.276,0.555-6.673,0.599-10.016c0.012-0.818-0.791-1.638-1.189-2.47
			c-0.228-0.472-0.7-1.124-0.543-1.433c0.917-1.819,1.753-3.757,3.054-5.283c1.97-2.312,4.235-1.826,4.979,1.175
			c1.461,5.895,5.955,10.002,8.506,15.232c0.144,0.3,0.52,0.485,1.157,0.573c-1.531-11.934-2.644-23.948-9.659-34.089
			c-0.362-1.382-0.924-2.609-0.934-3.835c-0.007-1.225,0.2-2.762,0.949-3.587c0.747-0.823,2.279-1.253,3.47-1.26
			c1.145-0.007,2.295,0.748,3.125,1.052c1.083-1.084,1.971-2.195,3.097-2.943c0.281-0.186,1.824,0.707,1.933,1.269
			c0.195,1.013-0.253,2.154-0.485,3.578c8.933,3.15,16.114,9.498,22.595,16.818c0.298-0.232,0.596-0.465,0.893-0.695
			c-2.352-5.781-4.704-11.561-7.056-17.341c-0.182,0.277-0.362,0.553-0.541,0.832c-1.459-0.428-2.916-0.857-4.373-1.285
			c0.456-1.155,0.909-2.31,1.55-3.943c-1.122-0.985-2.751-2.416-4.114-3.615c-1.332,0.316-2.727,0.944-4.039,0.802
			c-0.483-0.051-0.774-1.914-1.301-3.364c1.834,0.267,2.804,0.408,4.633,0.676c-2.824-2.575-5.03-4.591-7.207-6.578
			c-2.086,2.699-2.684,2.751-5.238,0.035c0.652-0.904,1.33-1.843,2.132-2.953c-2.251-1.338-3.803-4.444-7.465-2.811
			c-0.38,0.169-2.206-1.552-2.087-1.817c1.167-2.572-1.235-2.79-2.35-3.573c-4.777-3.348-10.102-5.365-15.121-5.834
			c-1.223,1.476-2.055,3.423-3.141,3.576c-1.893,0.267-2.262-1.452-2.167-3.276c0.023-0.437-1.618-1.324-2.519-1.361
			c-1.464-0.061-2.944,0.546-4.431,0.625c-1.964,0.103-3.566,0.216-4.34,2.614c-0.477,1.475-1.803,2.303-3.657,0.83
			c-0.79-0.627-2.771-0.669-3.649-0.103c-3.116,2.012-6.025,4.354-8.943,6.659c-1.949,1.538-3.945,3.076-5.605,4.897
			c-1.025,1.123-1.46,2.779-2.164,4.203c-2.084-1.107-1.729-2.734-0.623-4.038c2.537-2.992,5.171-5.917,7.971-8.661
			c4.89-4.793,10.989-7.447,17.458-9.363c0.53-0.159,1.034-0.426,1.573-0.537c0.538-0.114,1.108-0.097,1.184-0.105
			c0.226-1.503,0.167-2.843,0.696-3.891c0.246-0.493,2.084-0.849,2.39-0.517c0.778,0.842,1.098,2.105,1.608,3.214
			c3.705,0.562,7.873,1.191,12.041,1.824L212.867,53.562z"/>
		<path fill-rule="evenodd" clip-rule="evenodd" d="M171.191,265.059c-1.656,1.277-2.7,2.537-3.978,2.851
			c-0.555,0.137-1.589-1.662-2.725-2.941c-4.222,0-9.312,0-14.521,0c2.567-3.299,6.396-3.689,10.072-4.164
			c2.976-0.384,6.01-0.335,9.021-0.437c2.423-0.084,4.851-0.102,7.277-0.16c3.364-0.082,6.739-0.385,10.087-0.195
			c2.902,0.168,5.76,0.988,8.659,1.343c5.225,0.637,10.192,2.121,15.176,3.783c2.133,0.709,2.942,1.927,2.917,3.546
			c-0.055,3.809-0.313,7.648-0.906,11.408c-0.85,5.424-1.827,10.852-3.217,16.155c-0.822,3.137-1.977,6.506-3.981,8.943
			c-3.572,4.348-7.7,8.309-11.991,11.965c-2.711,2.309-6.542,2.063-9.487,0.547c-3.671-1.893-6.893-4.686-10.234-7.186
			c-3.063-2.291-6.27-4.471-8.974-7.141c-2.834-2.805-5.221-6.084-7.663-9.262c-1.487-1.932-2.86-3.992-3.996-6.141
			c-0.585-1.107-0.539-2.547-0.866-4.314c-3-1.963-2.985-2.958,0.864-5.165c0.813,0.916,1.664,1.877,2.491,2.809
			c1.331-0.561,2.66-1.124,3.991-1.688c-2.121,2.729-0.332,4.229,1.322,6.081c1.931,2.166,3.427,4.717,5.153,7.068
			c0.579,0.789,0.878,2.068,2.46,1.414c0.293-0.119,1.434,0.84,1.555,1.43c0.75,3.656,3.854,5.322,6.34,7.33
			c3.267,2.641,6.935,4.799,10.478,7.09c2.57,1.662,6.02,0.697,8.482-2.33c3.62-4.441,6.791-9.248,7.972-14.879
			c1.375-6.578,2.13-13.288,3.003-19.963c0.074-0.563-0.894-1.678-1.561-1.855c-5.451-1.463-10.943-2.771-16.427-4.102
			c-0.459-0.111-1.072-0.213-1.422-0.002c-3.494,2.072-6.213-0.609-9.279-1.335C175.099,265.047,172.764,265.172,171.191,265.059z"
			/>
		<path fill-rule="evenodd" clip-rule="evenodd" d="M62.917,126.399c0.88-2.238,1.638-4.184,2.411-6.126
			c0.281-0.702,0.414-1.649,0.941-2.04c3.622-2.667,4.946-6.942,7.477-10.357c2.799-3.782,5.759-7.464,8.898-10.965
			c4.326-4.828,8.771-9.563,13.387-14.109c2.534-2.498,5.459-4.621,8.352-6.714c0.834-0.604,2.203-0.412,3.26-0.776
			c1.324-0.458,2.642-1.008,3.845-1.717c1.043-0.613,2.042-2.223,2.839-2.088c0.937,0.16,1.636,1.726,2.909,3.243
			c3.896,1.041,8.607,2.295,13.317,3.563c0.169,0.047,0.349,0.2,0.449,0.354c1.979,3.057,4.065,2.579,5.957,0.066
			c2.83,1.444,2.87,3.14,0.662,5.232c2.695,1.039,4.391,3.704,7.581,2.872c0.26-0.067,0.822,0.495,1.045,0.881
			c2.66,4.586,7.525,6.8,11.096,10.396c1.735,1.748,3.539,3.534,4.807,5.608c1.131,1.852,0.76,3.848-1.491,4.818
			c-2.507-2.771-4.83-5.676-7.5-8.215c-3.79-3.607-8.018-6.627-12.757-8.991c-2.99-1.492-5.634-3.666-8.468-5.478
			c-1.894-1.21-3.778-2.486-5.818-3.392c-0.797-0.354-2.358-0.132-2.962,0.453c-1.837,1.78-2.807,0.888-3.956-1.008
			c0.841-0.163,1.57-0.302,2.149-0.414c-3.866-3.206-8.315-1.003-12.534-1.333c-0.746,3.89-2.138,4.536-5.23,2.13
			c-1.521,1.062-3.117,2.175-4.854,3.385c0.799,1.81,3.825,3.597,0.605,5.365c-0.807,0.443-2.535-0.788-4.454-1.468
			c-0.846,1.022-2.358,2.853-3.69,4.463c0.498,0.795,1.422,1.877,1.803,3.125c0.123,0.397-1.342,1.859-1.838,1.75
			c-1.212-0.272-2.284-1.178-3.775-2.036c-1.08,1.267-2.481,2.914-3.875,4.546c0.459,1.446,3.233,1.973,1.442,4.25
			c-1.429,1.815-2.702,1.299-4.005,0.037c-0.867,1.178-1.766,2.166-2.375,3.304c-0.469,0.878-0.5,1.977-0.864,2.923
			c-0.295,0.769-0.697,1.996-1.225,2.096c-2.818,0.528-3.52,3.087-4.64,4.932c-3.752,6.185-7.267,12.522-10.624,18.93
			c-1.335,2.551-1.959,5.471-3.043,8.169c-0.554,1.373-1.376,3.069-3.216,2.291c-1.399-0.595-2.783-1.68-1.678-3.813
			c1.71-3.303,3.201-6.719,4.798-10.078c0.648-1.362,1.333-2.707,1.968-3.994c-0.911-0.841-1.743-1.61-2.542-2.349
			C59.1,124.74,59.599,124.526,62.917,126.399z"/>
		<path fill-rule="evenodd" clip-rule="evenodd" d="M144.12,217.19c0.695,2.951-4.304,5.918-7.299,5.639
			c-2.909-0.27-5.845-0.365-8.724-0.822c-5.242-0.83-9.681,1.875-14.458,3.055c-3.548,0.877-6.949,2.436-10.527,3.064
			c-2.412,0.428-5.083,0.072-7.518-0.479c-2.779-0.629-4.003-4.375-2.224-6.689c1.185-1.539,2.749-3.02,4.466-3.885
			c7.132-3.601,14.43-6.913,22.656-6.783c3.947,0.06,7.883,0.623,11.828,0.924c2.096,0.156,4.203,0.414,6.291,0.31
			C140.795,211.412,144.113,214.639,144.12,217.19z"/>
		<path fill-rule="evenodd" clip-rule="evenodd" d="M206.419,217.333c3.385-6.395,8.827-8.92,15.434-8.508
			c5.237,0.324,10.464,1.115,15.083,4.292c1.577,1.089,4.13,0.638,6.08,1.339c3.281,1.178,6.478,2.613,9.619,4.131
			c1.849,0.891,2.948,5.145,1.742,7.201c-0.849,1.449-2.266,2.596-3.542,3.75c-1.604,1.449-3.021,0.418-4.575-0.381
			c-3.366-1.729-6.721-3.617-10.298-4.758c-4.317-1.381-8.867-2.021-13.302-3.045c-4.274-0.988-8.536-2.045-12.798-3.09
			C208.717,217.985,207.585,217.649,206.419,217.333z"/>
		<path fill-rule="evenodd" clip-rule="evenodd" d="M88.965,103.721c0.307-1.084,0.602-2.121,0.79-2.79
			c2.316,1.124,4.314,2.093,6.208,3.014c0.927-0.753,1.822-1.479,2.951-2.396c2.73,5.211,7.874,5.376,12.441,6.724
			c2.193,0.648,4.335,1.48,6.503,2.214c0.516,0.177,1.292,0.602,1.536,0.404c2.558-2.084,3.689-0.435,5.074,1.557
			c0.678,0.976,2.105,1.482,3.262,2.065c2.277,1.146,4.568,2.271,6.915,3.266c1.861,0.79,1.566,2.17,0.663,3.142
			c-0.83,0.892-2.424,1.928-3.369,1.685c-2.445-0.627-4.68-2.028-7.073-2.923c-2.349-0.878-4.844-1.371-7.172-2.297
			c-2.267-0.904-4.334-2.316-6.621-3.155c-1.152-0.423-2.59-0.021-3.896-0.083c-0.854-0.042-2.216,0.033-2.472-0.43
			c-2.358-4.27-7.207-4.433-10.731-6.731C92.348,105.924,90.722,104.867,88.965,103.721z"/>
		<path fill-rule="evenodd" clip-rule="evenodd" d="M211.483,22.021c0.34-1.468,0.35-2.804,0.979-3.701
			c0.321-0.453,2.419-0.421,2.583-0.075c0.515,1.102,0.503,2.454,0.693,3.708c-0.283,0.202-0.568,0.404-0.854,0.606
			c2.239,0.862,4.53,1.619,6.696,2.637c0.84,0.395,1.985,1.396,1.958,2.08c-0.04,0.92-0.89,2.123-1.735,2.614
			c-1.164,0.676-2.649,0.799-4.371,1.259c1.201-1.956,0.51-3.109-1.383-3.529c-1.925-0.423-3.869-0.783-5.823-1.013
			c-0.523-0.06-1.185,0.36-1.661,0.72c-1.084,0.825-2.095,1.748-3.137,2.632c-0.689-1.229-1.381-2.456-2.114-3.757
			c-2.086,0.107-4.699,0.091-7.262,0.448c-1.113,0.156-2.312,0.886-3.13,1.698c-1.31,1.301-2.185,2.644-4.142,0.642
			c-0.64-0.652-2.599-0.683-3.569-0.209c-2.277,1.11-4.561,2.446-6.392,4.17c-1.508,1.417-2.369,3.522-3.501,5.299
			c-1.796-1.547-1.375-4.34,1.566-6.471c2.583-1.872,5.174-3.812,7.999-5.257c2.863-1.463,6.008-2.379,9.049-3.487
			c0.943-0.346,1.945-0.537,2.162-0.595c0.383-1.812,0.415-3.162,1.012-4.187c0.224-0.388,2.317-0.351,2.563,0.072
			c0.564,0.966,0.514,2.291,0.748,3.694C203.771,22.021,207.949,22.021,211.483,22.021z"/>
		<path fill-rule="evenodd" clip-rule="evenodd" d="M16.99,149.98c1.159-1.731,2.33-3.301,3.311-4.981
			c2.072-3.552,4.038-7.167,6.066-10.745c0.46-0.813,1.183-1.524,1.452-2.386c0.251-0.807,0.307-1.842,0.014-2.614
			c-0.6-1.587,0.428-3.901,1.96-4.293c0.711-0.181,1.536-0.731,1.898-1.352c3.427-5.864,6.724-11.8,10.148-17.664
			c1.117-1.915,2.389-3.766,3.783-5.488c2.163-2.678,3.406-2.646,5.675-0.19c0.744,0.806,1.717,1.438,2.3,2.337
			c0.491,0.757,1.001,1.975,0.709,2.644c-0.325,0.748-1.815,1.727-2.314,1.505c-0.897-0.395-1.65-1.522-2.054-2.509
			c-0.33-0.809-0.067-1.859-0.067-2.8c-0.274-0.218-0.548-0.435-0.822-0.653c-0.962,0.815-2.217,1.455-2.83,2.479
			c-2.828,4.711-5.476,9.532-8.162,14.267c1.908,2.286,1.67,3.325-0.486,4.57c-1.199,0.689-2.469,1.708-3.078,2.899
			c-3.831,7.521-7.498,15.127-11.161,22.731c-0.205,0.423,0.239,1.115,0.146,1.641c-0.19,1.073-0.543,2.116-0.827,3.171
			c-0.92-0.295-1.873-0.521-2.751-0.91C19.03,151.253,18.233,150.701,16.99,149.98z"/>
		<path fill-rule="evenodd" clip-rule="evenodd" d="M133.084,162.469c1.192,0.818,2.593,1.351,3.197,2.361
			c0.347,0.578-0.307,2.381-1.024,2.857c-3.134,2.082-6.517,3.783-9.693,5.807c-4.44,2.827-8.724,5.898-13.166,8.719
			c-5.286,3.357-10.63,6.629-16.059,9.744c-0.708,0.408-2.07-0.32-3.129-0.522c0.514-1.142,0.709-2.798,1.589-3.339
			c4.558-2.799,9.544-4.953,13.902-8.016c5.583-3.924,10.617-8.619,16.07-12.74C127.292,165.437,130.243,164.108,133.084,162.469z"
			/>
		<path fill-rule="evenodd" clip-rule="evenodd" d="M119.121,92.421c2.838,1.947,5.46,3.789,8.125,5.569
			c6.241,4.164,12.504,8.292,18.746,12.448c1.015,0.676,2.056,1.35,2.932,2.181c0.395,0.377,0.414,1.146,0.604,1.736
			c-0.657,0.158-1.363,0.563-1.96,0.437c-4.133-0.864-8.245-1.835-11.214-2.513c-7.663-5.644-14.075-11.31-19.006-18.719
			C117.76,93.292,118.592,92.76,119.121,92.421z"/>
		<path fill-rule="evenodd" clip-rule="evenodd" d="M105.024,37.822c-1.947-2.823-1.859-3.128,1.55-5.04
			c0.448,0.397,0.964,0.799,1.408,1.269c0.381,0.401,0.679,0.883,0.974,1.278c3.626-1.004,7.164-2.354,10.819-2.888
			c3.538-0.52,7.209-0.39,10.796-0.153c1.336,0.088,2.597,1.282,4.15,2.107c0.597-0.416,1.475-1.027,2.745-1.91
			c0.639,1.065,1.639,2.028,1.671,3.026c0.023,0.713-1.396,2.179-1.915,2.072c-1.565-0.325-2.964-1.373-4.509-1.914
			c-1.708-0.6-3.487-1.02-5.265-1.389c-2.051-0.428-3.313,0.52-4.375,2.318c-0.336,0.572-2.283,0.854-2.971,0.428
			c-1.701-1.055-3.069-1.294-4.858-0.216c-3.701,2.23-7.725,3.984-11.205,6.503c-2.242,1.622-5.769,2.951-4.672,7.072
			c0.07,0.26-0.83,0.996-1.366,1.117c-0.34,0.074-1.078-0.511-1.216-0.936c-0.222-0.702-0.366-1.633-0.081-2.254
			c0.753-1.622,1.027-2.953-0.077-4.663c-0.892-1.382,0.497-3.06,2.154-3.011C102.311,40.74,102.383,40.705,105.024,37.822z"/>
		<path fill-rule="evenodd" clip-rule="evenodd" d="M50.873,121.885c1.733,3.924-1.508,6.405-2.878,9.342
			c-1.505,3.22-3.592,6.168-5.1,8.691c1.685,1.034,2.967,1.687,4.003,2.613c0.149,0.133-1.068,2.387-1.373,2.322
			c-1.438-0.305-2.776-1.071-4.498-1.826c-0.707,1.257-1.764,3.131-2.879,5.116c2.168,3.204,1.873,3.104-2.549,4.619
			c-1.688,0.581-2.618,3.416-3.863,5.242c-0.459,0.675-0.695,1.559-1.273,2.086c-1.26,1.152-3.66,0.288-3.604-1.375
			c0.079-2.293,0.618-4.57,1.06-7.514c0.971,1.153,1.463,1.739,1.961,2.328c2.116-2.969,4.244-5.82,6.226-8.769
			c2.558-3.807,4.984-7.703,7.5-11.539c1.112-1.696,2.309-3.336,3.471-5.002l-0.082,0.088c1.33-2.107,2.658-4.217,3.987-6.326
			L50.873,121.885z"/>
		<path fill-rule="evenodd" clip-rule="evenodd" d="M203.285,42.529c-2.609,0-5.48-0.007-8.352,0.006
			c-0.477,0.002-1.144-0.1-1.389,0.163c-1.14,1.194-1.564,3.527-4.094,2.179c-1.389-0.741-2.851-1.349-4.8-2.258
			c3.557-1.287,6.666-3.129,9.925-3.445c7.031-0.685,14.138-0.695,21.214-0.729c1.664-0.01,3.319,1.022,5.002,1.484
			c0.696,0.193,1.639-0.097,2.142,0.272c0.613,0.45,1.375,1.554,1.191,2.049c-0.401,1.094-1.225,2.151-2.151,2.872
			c-0.361,0.278-2-0.235-2.133-0.669c-0.671-2.193-2.315-1.933-3.942-1.928c-1.152,0.002-2.309,0.011-3.454-0.083
			c-1.811-0.151-3.458-0.272-4.625,1.684c-0.377,0.632-1.961,1.146-2.618,0.857C204.361,44.612,203.901,43.376,203.285,42.529z"/>
		<path fill-rule="evenodd" clip-rule="evenodd" d="M129.727,48.467c0.932,2.477-0.46,3.213-1.942,3.954
			c-2.834,1.417-5.72,2.751-8.448,4.352c-3.292,1.933-6.458,4.087-9.65,6.189c-0.971,0.639-1.703,1.306-1.236,2.825
			c0.181,0.59-1.041,2.303-1.587,2.286c-1.285-0.037-2.918-0.483-3.711-1.38c-0.691-0.788-1.036-2.878-0.487-3.589
			c2.146-2.795,4.57-5.239,8.324-6.245c2.737-0.732,5.205-2.519,7.727-3.952c0.349-0.197,0.198-1.133,0.484-1.607
			c0.622-1.037,1.252-2.149,2.161-2.879c0.232-0.186,1.698,0.788,2.281,1.49C125.088,51.645,127.749,51.225,129.727,48.467z"/>
		<path fill-rule="evenodd" clip-rule="evenodd" d="M255.459,300.838c-0.061-0.557-0.261-1.141-0.161-1.666
			c0.584-3.049,0.088-5.307-3.438-6.238c-0.745-0.199-1.789-2.391-1.463-2.941c0.951-1.621,2.379-3.084,3.931-4.158
			c0.46-0.322,2.238,0.588,2.913,1.369c2.786,3.215,1.379,6.777,0.466,10.229c-0.328,1.242-0.884,2.428-1.337,3.641
			C256.065,300.996,255.764,300.916,255.459,300.838z"/>
		<path fill-rule="evenodd" clip-rule="evenodd" d="M103.486,247.247c0.315,0.391,1.419,1.141,1.544,2.029
			c0.318,2.242-3.306,5.252-5.919,4.809c-0.925-0.16-2.156-1.396-2.358-2.338C96.321,249.762,99.857,247.211,103.486,247.247z"/>
		<path fill-rule="evenodd" clip-rule="evenodd" d="M253.233,324.41c0.249-3.316,0.518-3.559,5.685-5.082
			C258.221,324.568,257.663,325.066,253.233,324.41z"/>
		<path fill-rule="evenodd" clip-rule="evenodd" d="M282.462,287.961c0.063,2.771-0.937,4.002-2.849,3.803
			c-0.769-0.08-1.414-1.322-2.116-2.039c1.094-1.004,2.116-2.121,3.348-2.914C281.096,286.648,282.137,287.721,282.462,287.961z"/>
		<path fill-rule="evenodd" clip-rule="evenodd" d="M308.696,80.818c-1.734,3.704-2.734,3.91-6.08,0.186
			c0.939-0.927,1.923-1.898,2.912-2.869c0.275,0.237,0.551,0.474,0.826,0.708c0.789,0.676,1.576,1.352,2.369,2.035
			C308.723,80.886,308.696,80.818,308.696,80.818z"/>
		<path fill-rule="evenodd" clip-rule="evenodd" d="M125.969,28.25c1.398-1.459,2.312-2.414,3.636-3.798
			c0.832,1.413,1.819,2.381,1.85,3.382c0.021,0.708-1.201,1.975-1.961,2.052C128.589,29.976,127.583,29.058,125.969,28.25z"/>
		<path fill-rule="evenodd" clip-rule="evenodd" d="M56.784,81.202c1.059-1.164,1.953-2.147,2.932-3.22
			c1.96,2.026,4.037,2.88,1.814,5.027C59.462,85.01,58.651,83.065,56.784,81.202z"/>
		<path fill-rule="evenodd" clip-rule="evenodd" d="M253.321,55.769c0.315,1.131,0.999,2.326,0.818,3.371
			c-0.117,0.661-1.584,1.601-2.321,1.499c-0.802-0.109-2.186-1.556-2.043-1.935c0.446-1.169,1.499-2.105,2.314-3.132
			C252.501,55.637,252.912,55.704,253.321,55.769z"/>
		<path fill-rule="evenodd" clip-rule="evenodd" d="M53.473,132.6c0.344,1.125,1.053,2.302,0.897,3.355
			c-0.096,0.644-1.513,1.499-2.34,1.503c-0.683,0.004-2.056-1.343-1.937-1.668c0.443-1.239,1.366-2.305,2.109-3.434
			C52.627,132.437,53.05,132.519,53.473,132.6z"/>
		<path fill-rule="evenodd" clip-rule="evenodd" d="M225.667,80.867c0.944-0.948,1.89-1.896,2.836-2.844
			c0.423,0.221,0.846,0.441,1.269,0.662c0.572,0.995,1.557,1.979,1.576,2.983c0.014,0.714-1.29,2.048-1.983,2.035
			c-1.013-0.021-2.007-1.001-3.012-1.572C226.126,81.71,225.898,81.288,225.667,80.867z"/>
		<path fill-rule="evenodd" clip-rule="evenodd" d="M248.477,26.941c1.013-0.945,2.029-1.891,3.22-3.003
			c1.992,2.302,3.963,3.045,1.936,5.154C251.551,31.263,250.782,29.2,248.477,26.941z"/>
		<path fill-rule="evenodd" clip-rule="evenodd" d="M183.184,278.22c1.45,1.586,3.395,2.438,1.345,4.479
			c-2.033,2.021-2.917,0.17-4.383-1.234C181.121,280.421,182.067,279.412,183.184,278.22z"/>
		<path fill-rule="evenodd" clip-rule="evenodd" d="M157.098,27.636c1.087-0.83,2.1-1.833,3.321-2.358
			c0.283-0.121,1.744,1.366,1.795,2.167c0.051,0.769-0.978,2.228-1.622,2.282c-1.078,0.088-2.23-0.7-3.35-1.12
			C157.196,28.285,157.146,27.959,157.098,27.636z"/>
		<path fill-rule="evenodd" clip-rule="evenodd" d="M226.211,50.697c1.081-0.83,2.083-1.856,3.296-2.356
			c0.321-0.133,1.781,1.308,1.854,2.107c0.07,0.755-0.926,2.216-1.577,2.293c-1.076,0.124-2.251-0.618-3.385-0.992
			C226.336,51.399,226.274,51.048,226.211,50.697z"/>
		<path fill-rule="evenodd" clip-rule="evenodd" d="M257.043,50.535c1.053-0.774,2.023-1.785,3.202-2.184
			c0.381-0.13,1.776,1.304,1.847,2.096c0.067,0.753-0.938,2.214-1.577,2.277c-1.087,0.104-2.258-0.644-3.393-1.032
			C257.097,51.306,257.069,50.92,257.043,50.535z"/>
		<path fill-rule="evenodd" clip-rule="evenodd" d="M83.459,55.688c1.589,1.35,3.313,2.595,0.922,4.303
			c-0.615,0.441-2.323,0.399-2.734-0.088C79.789,57.688,81.717,56.756,83.459,55.688z"/>
		<path fill-rule="evenodd" clip-rule="evenodd" d="M130.258,55.706c0.378,1.122,1.128,2.288,1,3.348
			c-0.081,0.657-1.535,1.656-2.291,1.589c-0.801-0.072-2.249-1.499-2.117-1.856c0.43-1.173,1.453-2.128,2.245-3.167
			C129.483,55.647,129.871,55.678,130.258,55.706z"/>
		<path fill-rule="evenodd" clip-rule="evenodd" d="M283.223,54.747c0.996,1.919,1.932,2.946,1.921,3.961
			c-0.01,0.697-1.35,1.949-2.063,1.928c-0.998-0.028-1.97-1.013-2.953-1.589c-0.202-0.399-0.406-0.802-0.61-1.201
			C280.529,56.998,281.54,56.152,283.223,54.747z"/>
		<path fill-rule="evenodd" clip-rule="evenodd" d="M47.665,204.505c-1.28,0.943-2.237,2.19-3.085,2.121
			c-0.795-0.065-2.226-1.794-2.04-2.315c0.354-1.002,1.555-1.985,2.611-2.322C45.597,201.848,46.57,203.365,47.665,204.505z"/>
		<path fill-rule="evenodd" clip-rule="evenodd" d="M60.369,63.005c0.899,1.241,2.128,2.221,1.981,2.912
			c-0.195,0.934-1.408,2.228-2.255,2.286c-0.786,0.054-1.669-1.319-2.51-2.063C58.393,65.229,59.204,64.316,60.369,63.005z"/>
		<path fill-rule="evenodd" clip-rule="evenodd" d="M180.17,35.452c1.071-1.008,2.042-1.921,3.056-2.874
			c1.292,1.346,3.461,2.091,1.38,4.212C182.698,38.732,181.644,37.287,180.17,35.452z"/>
		<path fill-rule="evenodd" clip-rule="evenodd" d="M80.232,42.96c1.09-0.783,2.105-1.756,3.316-2.228
			c0.355-0.14,1.754,1.115,1.798,1.784c0.049,0.792-0.769,2.256-1.364,2.34c-1.131,0.16-2.373-0.456-3.569-0.748
			C80.354,43.728,80.292,43.344,80.232,42.96z"/>
		<path fill-rule="evenodd" clip-rule="evenodd" d="M276.269,109.562c0.365,1.113,1.094,2.273,0.958,3.317
			c-0.083,0.632-1.502,1.478-2.338,1.501c-0.69,0.019-2.099-1.275-1.993-1.57c0.43-1.231,1.31-2.307,2.026-3.441
			C275.369,109.435,275.82,109.497,276.269,109.562z"/>
		<path fill-rule="evenodd" clip-rule="evenodd" d="M256.583,80.865c0.946-0.83,1.889-1.657,3.367-2.956
			c1.018,1.683,2.019,2.672,2.122,3.75c0.063,0.658-1.245,2.04-1.939,2.042c-1.003,0.002-2.01-0.95-3.016-1.496
			C256.938,81.757,256.763,81.311,256.583,80.865z"/>
		<path fill-rule="evenodd" clip-rule="evenodd" d="M153.234,78.721c0.404,1.143,1.164,2.316,1.077,3.42
			c-0.049,0.629-1.536,1.646-2.289,1.575c-0.802-0.078-2.238-1.469-2.107-1.869c0.385-1.189,1.403-2.174,2.175-3.241
			C152.472,78.644,152.854,78.684,153.234,78.721z"/>
		<path fill-rule="evenodd" clip-rule="evenodd" d="M290.685,130.692c-1.11-1.292-2.512-2.314-2.348-2.857
			c0.331-1.079,1.524-1.892,2.364-2.813c0.727,0.769,2.051,1.55,2.04,2.307C292.724,128.299,291.631,129.25,290.685,130.692z"/>
		<path fill-rule="evenodd" clip-rule="evenodd" d="M299.496,132.613c0.215,1.22,0.692,2.479,0.52,3.644
			c-0.08,0.537-1.497,1.306-2.189,1.201c-0.733-0.111-1.993-1.392-1.87-1.717c0.47-1.223,1.41-2.266,2.175-3.374
			C298.586,132.449,299.042,132.53,299.496,132.613z"/>
		<path fill-rule="evenodd" clip-rule="evenodd" d="M303.074,142.766c1.049-0.755,2.022-1.744,3.192-2.137
			c0.438-0.147,1.863,1.066,1.902,1.714c0.047,0.818-0.74,2.263-1.395,2.407c-1.057,0.23-2.295-0.381-3.459-0.634
			C303.235,143.666,303.153,143.214,303.074,142.766z"/>
		<path fill-rule="evenodd" clip-rule="evenodd" d="M323.516,143.854c-0.43,0.435-0.859,0.872-1.287,1.306
			c-1.119-0.651-2.234-1.299-3.354-1.949c0.654-0.813,1.186-2.145,1.988-2.34C323.202,140.308,323.688,141.902,323.516,143.854z"/>
		<path fill-rule="evenodd" clip-rule="evenodd" d="M105.831,53.717c-0.937-1.292-2.25-2.465-2.033-2.929
			c0.486-1.046,1.728-1.741,2.665-2.577c0.702,0.903,1.979,1.833,1.94,2.704C108.365,51.761,106.976,52.546,105.831,53.717z"/>
		<path fill-rule="evenodd" clip-rule="evenodd" d="M229.258,16.812c0.989,1.352,2.248,2.358,2.089,3.034
			c-0.217,0.93-1.422,2.079-2.358,2.24c-0.674,0.119-2.379-1.448-2.258-1.877C227.04,19.117,228.116,18.244,229.258,16.812z"/>
		<path fill-rule="evenodd" clip-rule="evenodd" d="M134.114,50.553c1.039-0.783,1.993-1.805,3.164-2.216
			c0.382-0.132,1.787,1.282,1.871,2.079c0.077,0.734-0.906,2.166-1.57,2.261c-1.041,0.15-2.205-0.565-3.318-0.911
			C134.211,51.362,134.163,50.958,134.114,50.553z"/>
		<path fill-rule="evenodd" clip-rule="evenodd" d="M149.471,50.488c1.047-0.76,2.017-1.764,3.188-2.143
			c0.395-0.127,1.785,1.295,1.84,2.07c0.058,0.792-0.895,2.282-1.534,2.355c-1.066,0.126-2.235-0.634-3.362-1.022
			C149.559,51.329,149.515,50.908,149.471,50.488z"/>
		<path fill-rule="evenodd" clip-rule="evenodd" d="M26.513,173.42c1.052-0.758,2.023-1.762,3.194-2.133
			c0.404-0.129,1.773,1.287,1.849,2.079c0.075,0.765-0.88,2.253-1.505,2.321c-1.078,0.118-2.251-0.613-3.385-0.99
			C26.615,174.273,26.564,173.845,26.513,173.42z"/>
		<path fill-rule="evenodd" clip-rule="evenodd" d="M180.143,50.558c1.117-0.771,2.165-1.729,3.396-2.195
			c0.338-0.125,1.717,1.213,1.744,1.908c0.024,0.799-0.812,2.191-1.472,2.323c-1.043,0.207-2.251-0.423-3.389-0.7
			C180.328,51.448,180.235,51.004,180.143,50.558z"/>
		<path fill-rule="evenodd" clip-rule="evenodd" d="M33.258,181.536c1.487-1.654,2.354-2.619,3.22-3.586
			c0.402,0.205,0.802,0.41,1.204,0.616c0.579,0.978,1.564,1.947,1.599,2.944c0.023,0.711-1.233,2.053-1.926,2.061
			C36.346,183.577,35.332,182.634,33.258,181.536z"/>
		<path fill-rule="evenodd" clip-rule="evenodd" d="M180.106,296.549c1.091-0.818,2.107-1.816,3.326-2.34
			c0.335-0.145,1.764,1.105,1.822,1.791c0.067,0.789-0.741,2.285-1.322,2.363c-1.15,0.16-2.405-0.443-3.616-0.734
			C180.245,297.27,180.176,296.91,180.106,296.549z"/>
		<path fill-rule="evenodd" clip-rule="evenodd" d="M91.726,32.608c0.434,1.123,1.234,2.268,1.162,3.355
			c-0.045,0.632-1.455,1.556-2.31,1.624c-0.641,0.051-2.058-1.275-1.951-1.594c0.42-1.252,1.308-2.347,2.021-3.499
			C91.007,32.531,91.368,32.568,91.726,32.608z"/>
		<path fill-rule="evenodd" clip-rule="evenodd" d="M153.232,32.615c0.369,1.201,1.052,2.423,0.969,3.59
			c-0.04,0.553-1.571,1.41-2.389,1.366c-0.697-0.037-2.015-1.438-1.884-1.756c0.499-1.227,1.47-2.258,2.267-3.364
			C152.54,32.506,152.886,32.562,153.232,32.615z"/>
		<path fill-rule="evenodd" clip-rule="evenodd" d="M167.848,84.598c-1.157-1.23-2.621-2.281-2.456-2.718
			c0.421-1.119,1.566-1.965,2.424-2.922c0.71,0.771,1.993,1.543,1.991,2.314C169.807,82.226,168.745,83.179,167.848,84.598z"/>
		<path fill-rule="evenodd" clip-rule="evenodd" d="M275.499,78.646c1.65,1.51,3.02,2.746,0.906,4.614
			c-1.53,1.357-2.619,0.346-3.234-0.788C271.929,80.179,274.205,79.783,275.499,78.646z"/>
		<path fill-rule="evenodd" clip-rule="evenodd" d="M214.746,32.636c0.372,1.189,1.068,2.401,0.978,3.552
			c-0.044,0.567-1.548,1.415-2.382,1.401c-0.678-0.011-2.011-1.382-1.89-1.681c0.493-1.234,1.433-2.287,2.209-3.405
			C214.021,32.548,214.383,32.592,214.746,32.636z"/>
		<path fill-rule="evenodd" clip-rule="evenodd" d="M68.1,101.2c0.872,1.417,2.008,2.452,1.848,3.207
			c-0.205,0.95-1.471,1.673-2.279,2.491c-0.702-0.867-1.979-1.751-1.952-2.598C65.745,103.398,67.003,102.537,68.1,101.2z"/>
		<path fill-rule="evenodd" clip-rule="evenodd" d="M111.03,104.402c1.094-0.806,2.118-1.775,3.336-2.293
			c0.26-0.111,1.689,1.401,1.717,2.196c0.028,0.783-0.994,2.228-1.63,2.272c-1.062,0.072-2.187-0.741-3.286-1.18
			C111.122,105.064,111.076,104.734,111.03,104.402z"/>
		<path fill-rule="evenodd" clip-rule="evenodd" d="M159.882,55.323c1.681,1.617,3.672,2.444,1.645,4.54
			c-1.966,2.025-2.956,0.312-4.872-1.768C157.716,57.182,158.778,56.271,159.882,55.323z"/>
		<path fill-rule="evenodd" clip-rule="evenodd" d="M147.554,104.641c-1.278,0.93-2.172,2.071-3.095,2.094
			c-0.743,0.021-1.52-1.315-2.282-2.046c0.923-0.911,1.845-1.82,2.768-2.73C145.686,102.72,146.427,103.482,147.554,104.641z"/>
		<path fill-rule="evenodd" clip-rule="evenodd" d="M285.94,104.354c-1.19,1.031-2.059,2.369-2.916,2.363
			c-0.826-0.007-1.643-1.401-2.462-2.187c0.848-0.866,1.571-2.086,2.6-2.446C283.666,101.904,284.729,103.32,285.94,104.354z"/>
		<path fill-rule="evenodd" clip-rule="evenodd" d="M299.492,101.812c0.216,1.213,0.703,2.465,0.534,3.62
			c-0.084,0.569-1.522,1.473-2.094,1.313c-0.836-0.235-2.158-1.592-2.014-1.938c0.514-1.21,1.566-2.191,2.413-3.262
			C298.718,101.635,299.104,101.723,299.492,101.812z"/>
		<path fill-rule="evenodd" clip-rule="evenodd" d="M60.185,109.103c0.955,1.149,2.259,2.056,2.159,2.762
			c-0.135,0.957-1.28,2.365-2.119,2.46c-0.797,0.091-1.758-1.254-2.65-1.97C58.34,111.402,59.107,110.448,60.185,109.103z"/>
		<path fill-rule="evenodd" clip-rule="evenodd" d="M230.03,109.499c0.439,1.095,1.248,2.217,1.174,3.276
			c-0.044,0.625-1.503,1.629-2.288,1.596c-0.792-0.035-2.286-1.461-2.173-1.724c0.515-1.203,1.481-2.214,2.287-3.294
			C229.364,109.401,229.698,109.45,230.03,109.499z"/>
		<path fill-rule="evenodd" clip-rule="evenodd" d="M152.415,69.195c-1.181-1.257-2.64-2.284-2.479-2.749
			c0.369-1.061,1.531-1.849,2.369-2.746c0.762,0.713,2.135,1.434,2.13,2.142C154.431,66.795,153.357,67.741,152.415,69.195z"/>
		<path fill-rule="evenodd" clip-rule="evenodd" d="M109.338,19.737c-1.292,1.078-2.149,2.355-3.025,2.37
			c-0.88,0.014-1.78-1.232-2.672-1.924c0.871-0.869,1.615-2.098,2.66-2.462C106.878,17.521,107.961,18.773,109.338,19.737z"/>
		<path fill-rule="evenodd" clip-rule="evenodd" d="M86.343,119.708c-1.374,1.041-2.284,2.266-3.167,2.245
			c-0.802-0.016-1.575-1.387-2.363-2.158c0.818-0.79,1.548-2.033,2.486-2.216C83.996,117.442,84.96,118.681,86.343,119.708z"/>
		<path fill-rule="evenodd" clip-rule="evenodd" d="M134.077,19.918c1.101-0.773,2.135-1.722,3.353-2.201
			c0.318-0.125,1.717,1.206,1.712,1.864c-0.007,0.822-0.855,2.223-1.503,2.325c-1.048,0.167-2.233-0.525-3.357-0.854
			C134.211,20.673,134.144,20.294,134.077,19.918z"/>
		<path fill-rule="evenodd" clip-rule="evenodd" d="M180.143,19.756c1.135-0.718,2.208-1.631,3.448-2.03
			c0.364-0.117,1.702,1.231,1.688,1.888c-0.017,0.818-0.881,2.189-1.54,2.293c-1.063,0.167-2.258-0.506-3.398-0.822
			C180.275,20.641,180.208,20.197,180.143,19.756z"/>
		<path fill-rule="evenodd" clip-rule="evenodd" d="M180.138,65.915c1.127-0.741,2.187-1.675,3.421-2.103
			c0.357-0.123,1.716,1.196,1.724,1.866c0.005,0.813-0.821,2.202-1.476,2.326c-1.056,0.194-2.264-0.446-3.406-0.734
			C180.313,66.818,180.227,66.365,180.138,65.915z"/>
		<path fill-rule="evenodd" clip-rule="evenodd" d="M101.49,27.453c-1.212,1.083-1.994,2.319-2.9,2.423
			c-0.769,0.086-1.686-1.136-2.537-1.779c0.851-0.983,1.575-2.164,2.628-2.823C98.974,25.09,100.234,26.449,101.49,27.453z"/>
		<path fill-rule="evenodd" clip-rule="evenodd" d="M275.855,62.52c0.752,2.026,1.537,3.169,1.438,4.231
			c-0.06,0.609-1.6,1.561-2.385,1.485c-0.785-0.077-2.193-1.559-2.057-1.879C273.343,65.215,274.375,64.305,275.855,62.52z"/>
		<path fill-rule="evenodd" clip-rule="evenodd" d="M168.877,278.582c0.27,1.156,0.896,2.387,0.676,3.442
			c-0.135,0.65-1.584,1.449-2.402,1.402c-0.672-0.037-1.933-1.457-1.792-1.852c0.428-1.186,1.413-2.17,2.179-3.233
			C167.985,278.421,168.431,278.501,168.877,278.582z"/>
		<path fill-rule="evenodd" clip-rule="evenodd" d="M176.412,24.974c0.341,1.15,1.044,2.354,0.89,3.429
			c-0.093,0.648-1.619,1.624-2.337,1.501c-0.752-0.13-1.968-1.594-1.81-2.13c0.331-1.125,1.429-2.023,2.212-3.018
			C175.714,24.83,176.063,24.901,176.412,24.974z"/>
		<path fill-rule="evenodd" clip-rule="evenodd" d="M291.723,78.763c0.315,1.152,0.994,2.365,0.815,3.433
			c-0.107,0.653-1.542,1.506-2.362,1.487c-0.676-0.017-1.993-1.403-1.863-1.796c0.399-1.208,1.359-2.232,2.102-3.327
			C290.853,78.627,291.287,78.695,291.723,78.763z"/>
		<path fill-rule="evenodd" clip-rule="evenodd" d="M214.669,78.688c0.433,1.115,1.31,2.305,1.145,3.325
			c-0.118,0.729-1.594,1.58-2.548,1.701c-0.563,0.072-1.962-1.419-1.829-1.778c0.46-1.231,1.429-2.27,2.202-3.382
			C213.984,78.597,214.327,78.642,214.669,78.688z"/>
		<path fill-rule="evenodd" clip-rule="evenodd" d="M199.459,32.685c0.299,1.196,0.913,2.435,0.76,3.573
			c-0.075,0.569-1.579,1.359-2.375,1.296c-0.684-0.054-1.938-1.48-1.801-1.787c0.541-1.203,1.533-2.205,2.357-3.283
			C198.755,32.552,199.107,32.617,199.459,32.685z"/>
		<path fill-rule="evenodd" clip-rule="evenodd" d="M132.395,89.27c-1.445,0.93-2.402,2.017-3.353,2.011
			c-0.773-0.003-1.54-1.315-2.309-2.047c0.924-0.834,1.742-2.012,2.822-2.349C130.081,86.722,131.096,88.13,132.395,89.27z"/>
		<path fill-rule="evenodd" clip-rule="evenodd" d="M256.979,35.48c1.086-1.03,2.056-1.949,3.069-2.912
			c1.325,1.338,3.382,2.091,1.358,4.227C259.435,38.872,258.491,37.141,256.979,35.48z"/>
		<path fill-rule="evenodd" clip-rule="evenodd" d="M190.802,276.648c-1.127-1.334-2.498-2.352-2.328-2.875
			c0.343-1.064,1.519-1.859,2.352-2.766c0.726,0.777,2.025,1.547,2.03,2.33C192.863,274.267,191.759,275.207,190.802,276.648z"/>
		<path fill-rule="evenodd" clip-rule="evenodd" d="M306.901,109.488c0.439,1.094,1.26,2.218,1.176,3.273
			c-0.049,0.636-1.51,1.636-2.313,1.612c-0.791-0.025-2.297-1.403-2.184-1.724c0.414-1.166,1.373-2.142,2.127-3.189
			C306.106,109.469,306.504,109.479,306.901,109.488z"/>
		<path fill-rule="evenodd" clip-rule="evenodd" d="M57.236,96.64c1.057-0.762,2.033-1.782,3.213-2.154
			c0.43-0.134,1.696,1.179,1.919,2.008c0.154,0.569-0.774,1.998-1.336,2.068c-1.162,0.142-2.404-0.37-3.613-0.611
			C57.359,97.514,57.297,97.076,57.236,96.64z"/>
		<path fill-rule="evenodd" clip-rule="evenodd" d="M47.802,235.276c-1.41,0.936-2.352,2.035-3.278,2.023
			c-0.743-0.008-1.471-1.367-2.205-2.127c0.896-0.846,1.679-2.004,2.744-2.391C45.508,232.62,46.547,234.09,47.802,235.276z"/>
		<path fill-rule="evenodd" clip-rule="evenodd" d="M34.199,211.985c1.097-0.781,2.119-1.742,3.333-2.227
			c0.335-0.131,1.817,1.237,1.752,1.802c-0.107,0.942-0.934,2.413-1.645,2.53c-1.018,0.17-2.203-0.679-3.318-1.092
			C34.282,212.661,34.24,212.323,34.199,211.985z"/>
		<path fill-rule="evenodd" clip-rule="evenodd" d="M47.077,128.218c-0.416,0.391-0.82,0.797-1.25,1.174
			c-1.366,1.196-2.535,0.443-2.928-0.79c-0.265-0.832,0.202-2.258,0.853-2.886c0.391-0.376,1.9,0.063,2.654,0.539
			c0.45,0.283,0.409,1.345,0.587,2.056C46.995,128.306,47.077,128.218,47.077,128.218z"/>
		<path fill-rule="evenodd" clip-rule="evenodd" d="M87.753,81.971c1.248-1.347,2.14-2.311,3.45-3.729
			c0.79,1.377,1.761,2.356,1.787,3.357c0.019,0.727-1.213,2.086-1.887,2.086C90.109,83.688,89.117,82.728,87.753,81.971z"/>
		<path fill-rule="evenodd" clip-rule="evenodd" d="M134.109,96.668c1.06-0.77,2.045-1.74,3.228-2.189
			c0.357-0.134,1.761,1.157,1.792,1.833c0.037,0.811-0.786,2.258-1.417,2.367c-1.071,0.183-2.287-0.465-3.441-0.764
			C134.216,97.499,134.163,97.084,134.109,96.668z"/>
		<path fill-rule="evenodd" clip-rule="evenodd" d="M210.915,96.693c1.104-0.771,2.142-1.708,3.36-2.198
			c0.291-0.118,1.672,1.231,1.667,1.903c-0.001,0.83-0.85,2.268-1.472,2.347c-1.068,0.136-2.243-0.577-3.374-0.934
			C211.035,97.439,210.975,97.067,210.915,96.693z"/>
		<path fill-rule="evenodd" clip-rule="evenodd" d="M88.085,50.681c0.995-0.827,1.902-1.854,3.041-2.354
			c0.309-0.135,1.787,1.266,1.866,2.049c0.077,0.771-0.818,2.198-1.505,2.351c-0.929,0.209-2.07-0.522-3.12-0.852
			C88.271,51.478,88.178,51.079,88.085,50.681z"/>
		<path fill-rule="evenodd" clip-rule="evenodd" d="M167.769,47.317c1.008,1.499,2.184,2.488,2.04,3.222
			c-0.179,0.939-1.313,2.07-2.256,2.337c-0.534,0.152-2.224-1.368-2.135-1.944C165.581,49.852,166.658,48.911,167.769,47.317z"/>
		<path fill-rule="evenodd" clip-rule="evenodd" d="M212.928,53.62c-0.372-1.231-1.053-2.482-0.987-3.692
			c0.03-0.604,1.373-1.457,2.217-1.585c0.504-0.076,1.568,0.959,1.691,1.623c0.137,0.741-0.335,1.774-0.866,2.404
			c-0.489,0.581-1.409,0.795-2.129,1.183C212.867,53.562,212.928,53.62,212.928,53.62z"/>
		<path fill-rule="evenodd" clip-rule="evenodd" d="M244.366,53.899c-1.03-1.394-2.349-2.495-2.15-3.057
			c0.369-1.043,1.627-1.776,2.512-2.635c0.671,0.822,1.917,1.685,1.863,2.458C246.525,51.624,245.387,52.512,244.366,53.899z"/>
		<path fill-rule="evenodd" clip-rule="evenodd" d="M275.217,47.454c1.021,1.325,2.246,2.226,2.158,2.969
			c-0.113,0.932-1.238,2.34-2.043,2.423c-0.795,0.082-2.497-1.305-2.437-1.914C272.997,49.877,274.154,48.929,275.217,47.454z"/>
		<path fill-rule="evenodd" clip-rule="evenodd" d="M228.701,32.083c2.357,1.961,3.829,3.115,1.643,5.028
			c-1.513,1.322-2.956,0.418-3.157-0.72C226.977,35.203,228.042,33.793,228.701,32.083z"/>
		<path fill-rule="evenodd" clip-rule="evenodd" d="M322.62,109.673c0.215,1.148,0.725,2.354,0.521,3.422
			c-0.107,0.585-1.477,1.369-2.184,1.283c-0.746-0.09-2.061-1.374-1.945-1.67c0.479-1.217,1.408-2.258,2.17-3.364
			C321.661,109.453,322.141,109.562,322.62,109.673z"/>
		<path fill-rule="evenodd" clip-rule="evenodd" d="M280.016,119.671c1.13-0.728,2.194-1.65,3.43-2.061
			c0.362-0.121,1.603,1.147,1.714,1.887c0.098,0.662-0.725,2.023-1.284,2.107c-1.155,0.169-2.404-0.307-3.617-0.516
			C280.179,120.616,280.097,120.145,280.016,119.671z"/>
		<path fill-rule="evenodd" clip-rule="evenodd" d="M283.12,86.067c0.932,1.275,2.19,2.284,2.028,2.946
			c-0.23,0.939-1.422,2.079-2.364,2.251c-0.655,0.118-2.366-1.508-2.237-1.898C280.915,88.271,281.991,87.417,283.12,86.067z"/>
		<path fill-rule="evenodd" clip-rule="evenodd" d="M322.559,155.698c0.242,1.154,0.779,2.355,0.605,3.443
			c-0.098,0.604-1.52,1.535-2.111,1.389c-0.836-0.207-2.176-1.524-2.035-1.931c0.398-1.167,1.436-2.109,2.225-3.141
			C321.682,155.538,322.122,155.617,322.559,155.698z"/>
		<path fill-rule="evenodd" clip-rule="evenodd" d="M313.999,147.229c0.893,1.527,2.012,2.595,1.826,3.332
			c-0.236,0.936-1.445,2.028-2.408,2.228c-0.553,0.114-2.156-1.545-2.031-2.14C311.612,149.581,312.786,148.714,313.999,147.229z"/>
		<path fill-rule="evenodd" clip-rule="evenodd" d="M203.137,73.828c1.061-0.843,2.033-1.91,3.241-2.397
			c0.374-0.153,1.729,1.157,1.977,1.994c0.165,0.553-0.766,2-1.346,2.083c-1.16,0.167-2.413-0.325-3.629-0.546
			C203.297,74.583,203.217,74.207,203.137,73.828z"/>
		<path fill-rule="evenodd" clip-rule="evenodd" d="M303.056,96.612c1.132-0.739,2.195-1.673,3.437-2.096
			c0.359-0.123,1.617,1.15,1.729,1.892c0.096,0.66-0.736,2.005-1.316,2.1c-1.148,0.191-2.404-0.274-3.617-0.467
			C303.208,97.564,303.133,97.089,303.056,96.612z"/>
		<path fill-rule="evenodd" clip-rule="evenodd" d="M163.215,89.208c-1.492,0.973-2.438,2.068-3.382,2.065
			c-0.788,0-1.573-1.287-2.361-2.005c0.911-0.843,1.71-2.042,2.781-2.384C160.799,86.71,161.835,88.074,163.215,89.208z"/>
		<path fill-rule="evenodd" clip-rule="evenodd" d="M76.652,124.871c0.225,1.205,0.722,2.446,0.562,3.596
			c-0.079,0.574-1.512,1.489-2.077,1.334c-0.834-0.233-2.158-1.583-2.014-1.934c0.501-1.206,1.55-2.186,2.391-3.253
			C75.892,124.701,76.271,124.787,76.652,124.871z"/>
		<path fill-rule="evenodd" clip-rule="evenodd" d="M132.371,43.133c-1.424,0.937-2.448,2.133-3.297,2.016
			c-0.822-0.109-1.463-1.566-2.183-2.43c0.878-0.702,1.716-1.873,2.648-1.954C130.259,40.703,131.099,42.006,132.371,43.133z"/>
		<path fill-rule="evenodd" clip-rule="evenodd" d="M124.667,20.03c-1.447,0.984-2.357,2.074-3.289,2.091
			c-0.728,0.014-1.48-1.301-2.222-2.028c0.874-0.841,1.634-2.01,2.675-2.381C122.316,17.537,123.355,18.91,124.667,20.03z"/>
		<path fill-rule="evenodd" clip-rule="evenodd" d="M244.478,69.27c-1.116-1.382-2.457-2.446-2.272-2.941
			c0.389-1.043,1.579-1.789,2.438-2.655c0.703,0.771,1.979,1.552,1.966,2.312C246.594,66.907,245.491,67.808,244.478,69.27z"/>
		<path fill-rule="evenodd" clip-rule="evenodd" d="M237.005,24.435c0.925,1.329,2.137,2.321,1.999,3.058
			c-0.184,0.959-1.441,1.714-2.233,2.557c-0.755-0.834-2.1-1.666-2.103-2.501C234.665,26.663,235.934,25.771,237.005,24.435z"/>
		<path fill-rule="evenodd" clip-rule="evenodd" d="M168.866,32.759c0.27,1.141,0.901,2.36,0.68,3.396
			c-0.142,0.655-1.573,1.45-2.393,1.413c-0.667-0.027-1.939-1.445-1.8-1.819c0.441-1.183,1.419-2.163,2.191-3.222
			C167.985,32.603,168.423,32.682,168.866,32.759z"/>
		<path fill-rule="evenodd" clip-rule="evenodd" d="M245.515,32.65c0.35,1.136,1.053,2.321,0.909,3.389
			c-0.088,0.648-1.494,1.522-2.313,1.531c-0.658,0.007-1.996-1.386-1.871-1.726c0.457-1.227,1.408-2.272,2.17-3.385
			C244.779,32.522,245.148,32.587,245.515,32.65z"/>
		<path fill-rule="evenodd" clip-rule="evenodd" d="M144.562,46.213c-1.097-1.417-2.404-2.498-2.211-2.983
			c0.409-1.032,1.596-1.754,2.467-2.605c0.684,0.785,1.926,1.582,1.908,2.352C146.704,43.883,145.593,44.766,144.562,46.213z"/>
		<path fill-rule="evenodd" clip-rule="evenodd" d="M240.035,43.219c-1.529,0.917-2.507,1.958-3.454,1.93
			c-0.756-0.021-1.474-1.343-2.21-2.088c0.924-0.825,1.739-1.994,2.815-2.326C237.697,40.577,238.7,42.006,240.035,43.219z"/>
		<path fill-rule="evenodd" clip-rule="evenodd" d="M252.11,46.306c-1.046-1.566-2.222-2.56-2.11-3.375
			c0.12-0.857,1.406-2.005,2.312-2.14c0.629-0.093,2.094,1.34,2.073,2.061C254.36,43.792,253.237,44.706,252.11,46.306z"/>
		<path fill-rule="evenodd" clip-rule="evenodd" d="M270.725,43.007c-1.456,1.024-2.349,2.131-3.261,2.147
			c-0.768,0.014-1.56-1.238-2.341-1.931c0.854-0.864,1.583-2.056,2.619-2.456C268.235,40.577,269.307,41.897,270.725,43.007z"/>
		<path fill-rule="evenodd" clip-rule="evenodd" d="M75.414,53.884c-1.097-1.373-2.446-2.451-2.258-2.955
			c0.397-1.066,1.598-1.833,2.469-2.723c0.7,0.802,1.966,1.612,1.949,2.399C77.556,51.536,76.429,52.442,75.414,53.884z"/>
		<path fill-rule="evenodd" clip-rule="evenodd" d="M99.699,55.778c0.216,1.201,0.699,2.444,0.53,3.59
			c-0.082,0.562-1.441,1.382-2.11,1.289c-0.732-0.104-1.996-1.347-1.875-1.708c0.411-1.226,1.329-2.281,2.056-3.401
			C98.765,55.625,99.232,55.701,99.699,55.778z"/>
		<path fill-rule="evenodd" clip-rule="evenodd" d="M145.862,55.823c0.247,1.147,0.846,2.376,0.607,3.413
			c-0.151,0.657-1.554,1.403-2.389,1.394c-0.542-0.007-1.614-1.441-1.48-2c0.27-1.116,1.208-2.071,1.873-3.091
			C144.936,55.632,145.4,55.727,145.862,55.823z"/>
		<path fill-rule="evenodd" clip-rule="evenodd" d="M90.892,62.834c1.018,1.377,2.226,2.321,2.098,3.016
			c-0.174,0.94-1.259,2.133-2.175,2.37c-0.601,0.156-2.342-1.308-2.253-1.819C88.749,65.32,89.799,64.388,90.892,62.834z"/>
		<path fill-rule="evenodd" clip-rule="evenodd" d="M168.024,62.797c0.881,1.533,1.964,2.59,1.768,3.285
			c-0.26,0.916-1.445,1.956-2.388,2.14c-0.553,0.109-2.117-1.508-1.986-2.05C165.673,65.122,166.8,64.281,168.024,62.797z"/>
		<path fill-rule="evenodd" clip-rule="evenodd" d="M198.738,62.836c0.863,1.514,1.953,2.581,1.754,3.275
			c-0.264,0.909-1.473,1.94-2.417,2.107c-0.564,0.098-2.099-1.536-1.962-2.084C196.373,65.092,197.517,64.272,198.738,62.836z"/>
		<path fill-rule="evenodd" clip-rule="evenodd" d="M216.971,66.008c-1.45,1.052-2.335,2.181-3.262,2.216
			c-0.765,0.03-1.577-1.236-2.37-1.928c0.855-0.874,1.584-2.095,2.621-2.474C214.49,63.629,215.574,64.944,216.971,66.008z"/>
		<path fill-rule="evenodd" clip-rule="evenodd" d="M44.985,93.472c0.937,1.519,2.052,2.539,1.882,3.247
			c-0.221,0.913-1.385,1.994-2.316,2.191c-0.57,0.12-2.175-1.427-2.062-1.957C42.72,95.89,43.806,95.009,44.985,93.472z"/>
		<path fill-rule="evenodd" clip-rule="evenodd" d="M103.31,96.626c1.115-0.753,2.16-1.701,3.387-2.132
			c0.363-0.128,1.736,1.188,1.75,1.865c0.019,0.806-0.815,2.198-1.475,2.324c-1.055,0.204-2.27-0.426-3.42-0.705
			C103.472,97.527,103.391,97.076,103.31,96.626z"/>
		<path fill-rule="evenodd" clip-rule="evenodd" d="M275.055,99.911c-1.045-1.364-2.373-2.495-2.172-2.958
			c0.453-1.039,1.668-1.745,2.572-2.585c0.692,0.804,1.972,1.647,1.924,2.402C277.318,97.693,276.141,98.541,275.055,99.911z"/>
		<path fill-rule="evenodd" clip-rule="evenodd" d="M290.91,93.425c0.907,1.566,1.993,2.609,1.812,3.331
			c-0.23,0.909-1.412,1.964-2.349,2.157c-0.55,0.113-2.119-1.471-1.999-2.029C288.6,95.824,289.712,94.956,290.91,93.425z"/>
		<path fill-rule="evenodd" clip-rule="evenodd" d="M290.646,62.788c1.028,1.435,2.207,2.381,2.075,3.076
			c-0.178,0.938-1.252,2.097-2.167,2.355c-0.57,0.158-2.284-1.292-2.202-1.822C288.519,65.324,289.555,64.388,290.646,62.788z"/>
		<path fill-rule="evenodd" clip-rule="evenodd" d="M55.515,89.212c-1.38,0.948-2.382,2.166-3.202,2.052
			c-0.85-0.116-1.523-1.52-2.274-2.358c0.876-0.729,1.691-1.912,2.644-2.038C53.371,86.78,54.242,88.097,55.515,89.212z"/>
		<path fill-rule="evenodd" clip-rule="evenodd" d="M222.577,101.814c0.295,1.157,0.939,2.372,0.754,3.445
			c-0.113,0.646-1.516,1.453-2.341,1.455c-0.554,0.002-1.667-1.382-1.557-1.954c0.218-1.118,1.123-2.103,1.741-3.141
			C221.641,101.684,222.11,101.749,222.577,101.814z"/>
		<path fill-rule="evenodd" clip-rule="evenodd" d="M67.819,85.878c1.018,1.38,2.219,2.314,2.096,3.014
			c-0.167,0.936-1.24,2.116-2.154,2.369c-0.583,0.163-2.319-1.289-2.235-1.802C65.705,88.381,66.741,87.444,67.819,85.878z"/>
		<path fill-rule="evenodd" clip-rule="evenodd" d="M175.779,55.762c1.562,1.371,2.87,2.813,0.618,4.388
			c-0.571,0.402-2.349,0.126-2.723-0.42C172.216,57.602,173.754,56.577,175.779,55.762z"/>
		<path fill-rule="evenodd" clip-rule="evenodd" d="M47.869,112.104c-1.39,1.055-2.251,2.203-3.174,2.251
			c-0.762,0.044-1.594-1.21-2.395-1.891c0.844-0.893,1.552-2.12,2.585-2.531C45.386,109.734,46.496,111.059,47.869,112.104z"/>
		<path fill-rule="evenodd" clip-rule="evenodd" d="M90.715,115.377c-1.055-1.417-2.352-2.523-2.149-3.022
			c0.418-1.031,1.635-1.738,2.523-2.579c0.681,0.804,1.938,1.64,1.891,2.397C92.922,113.105,91.779,113.969,90.715,115.377z"/>
		<path fill-rule="evenodd" clip-rule="evenodd" d="M286.099,73.932c-1.459,0.895-2.482,2.013-3.353,1.906
			c-0.778-0.095-2.072-1.708-1.915-2.351c0.214-0.878,1.543-1.949,2.479-2.035C284.011,71.388,284.838,72.75,286.099,73.932z"/>
		<path fill-rule="evenodd" clip-rule="evenodd" d="M290.528,115.394c-1.084-1.417-2.395-2.506-2.199-3.008
			c0.403-1.037,1.611-1.761,2.487-2.614c0.684,0.799,1.929,1.615,1.903,2.389C292.687,113.08,291.564,113.962,290.528,115.394z"/>
		<path fill-rule="evenodd" clip-rule="evenodd" d="M101.644,119.787c-1.429,1.034-2.31,2.16-3.218,2.181
			c-0.776,0.017-1.58-1.233-2.372-1.921c0.857-0.876,1.589-2.065,2.632-2.484C99.162,117.371,100.25,118.692,101.644,119.787z"/>
		<path fill-rule="evenodd" clip-rule="evenodd" d="M255.294,73.633c-1.341,1.031-2.204,2.195-3.146,2.26
			c-0.729,0.051-1.557-1.267-2.342-1.977c0.835-0.874,1.539-2.116,2.555-2.472C252.901,71.256,253.979,72.603,255.294,73.633z"/>
		<path fill-rule="evenodd" clip-rule="evenodd" d="M193.876,89.222c-1.472,0.976-2.392,2.049-3.321,2.056
			c-0.738,0.005-1.489-1.29-2.235-2.008c0.879-0.84,1.641-2.025,2.684-2.379C191.514,86.72,192.547,88.095,193.876,89.222z"/>
		<path fill-rule="evenodd" clip-rule="evenodd" d="M29.398,139.719c1.025,1.349,2.287,2.318,2.147,2.992
			c-0.198,0.934-1.354,2.114-2.277,2.298c-0.657,0.132-2.376-1.364-2.274-1.847C27.224,142.083,28.297,141.186,29.398,139.719z"/>
		<path fill-rule="evenodd" clip-rule="evenodd" d="M224.55,89.038c-1.396,1.067-2.258,2.223-3.174,2.268
			c-0.762,0.037-1.588-1.234-2.388-1.924c0.848-0.874,1.57-2.092,2.603-2.479C222.108,86.708,223.194,88.014,224.55,89.038z"/>
		<path fill-rule="evenodd" clip-rule="evenodd" d="M53.468,147.896c0.333,1.139,1.027,2.331,0.864,3.395
			c-0.098,0.66-1.591,1.661-2.282,1.533c-0.767-0.14-2.005-1.593-1.844-2.109c0.343-1.127,1.445-2.021,2.237-3.008
			C52.785,147.769,53.126,147.833,53.468,147.896z"/>
		<path fill-rule="evenodd" clip-rule="evenodd" d="M45.667,155.568c0.388,1.119,1.143,2.276,1.029,3.343
			c-0.07,0.653-1.45,1.559-2.286,1.607c-0.636,0.04-2.014-1.319-1.898-1.658c0.418-1.234,1.329-2.298,2.056-3.425
			C44.933,155.479,45.3,155.524,45.667,155.568z"/>
		<path fill-rule="evenodd" clip-rule="evenodd" d="M41.919,173.567c1.078-0.803,2.096-1.738,3.29-2.293
			c0.234-0.109,1.624,1.235,1.633,1.92c0.011,0.842-0.776,2.314-1.385,2.406c-1.048,0.154-2.226-0.545-3.348-0.886
			C42.047,174.331,41.984,173.95,41.919,173.567z"/>
		<path fill-rule="evenodd" clip-rule="evenodd" d="M30.475,186.514c0.353,1.047,1.113,2.18,0.922,3.117
			c-0.139,0.688-1.57,1.607-2.344,1.539c-0.79-0.072-2.219-1.561-2.089-1.848c0.516-1.146,1.536-2.063,2.368-3.062
			C29.712,186.344,30.094,186.43,30.475,186.514z"/>
		<path fill-rule="evenodd" clip-rule="evenodd" d="M44.823,192.18c-1.164-1.348-2.555-2.391-2.381-2.871
			c0.376-1.048,1.549-1.811,2.395-2.69c0.725,0.743,2.026,1.484,2.028,2.228C46.868,189.771,45.796,190.698,44.823,192.18z"/>
		<path fill-rule="evenodd" clip-rule="evenodd" d="M37.151,199.734c-1.066-1.302-2.396-2.297-2.232-2.86
			c0.295-1.024,1.478-1.795,2.291-2.672c0.736,0.758,2.077,1.531,2.061,2.27C39.248,197.415,38.127,198.333,37.151,199.734z"/>
		<path fill-rule="evenodd" clip-rule="evenodd" d="M144.704,70.373c1.006,1.496,2.161,2.467,2.023,3.194
			c-0.179,0.946-1.269,2.122-2.191,2.377c-0.555,0.153-2.256-1.352-2.179-1.949C142.494,72.926,143.586,71.98,144.704,70.373z"/>
		<path fill-rule="evenodd" clip-rule="evenodd" d="M129.437,70.549c0.974,1.371,2.214,2.382,2.058,3.079
			c-0.211,0.934-1.502,1.624-2.332,2.418c-0.746-0.82-2.082-1.645-2.077-2.458C127.091,72.715,128.361,71.85,129.437,70.549z"/>
		<path fill-rule="evenodd" clip-rule="evenodd" d="M44.579,222.893c-1.034-1.445-2.293-2.547-2.089-3.063
			c0.412-1.018,1.626-1.711,2.512-2.541c0.667,0.814,1.907,1.664,1.856,2.428C46.8,220.645,45.647,221.499,44.579,222.893z"/>
		<path fill-rule="evenodd" clip-rule="evenodd" d="M80.211,73.795c1.067-0.832,2.042-1.894,3.248-2.368
			c0.384-0.148,1.728,1.169,1.973,2.006c0.163,0.552-0.776,1.993-1.362,2.079c-1.154,0.17-2.409-0.327-3.622-0.547
			C80.369,74.576,80.291,74.186,80.211,73.795z"/>
		<path fill-rule="evenodd" clip-rule="evenodd" d="M29.814,253.434c-0.566-0.584-1.06-1.273-1.714-1.729
			c-1.183-0.818-1.275-1.996-0.418-2.732c0.63-0.545,2.107-0.746,2.842-0.375c1.054,0.531,1.889,1.672,0.595,3.002
			c-0.521,0.537-0.89,1.219-1.341,1.842C29.766,253.448,29.814,253.434,29.814,253.434z"/>
		<path fill-rule="evenodd" clip-rule="evenodd" d="M157.112,273.386c1.11-0.777,2.149-1.736,3.377-2.211
			c0.328-0.129,1.717,1.203,1.736,1.891c0.023,0.811-0.802,2.217-1.459,2.346c-1.041,0.201-2.249-0.439-3.387-0.725
			C157.291,274.253,157.203,273.82,157.112,273.386z"/>
		<path fill-rule="evenodd" clip-rule="evenodd" d="M198.694,278.486c1.905,1.506,2.812,3.057,0.719,4.514
			c-0.575,0.4-2.497-0.041-2.899-0.672C195.021,279.992,197.333,279.511,198.694,278.486z"/>
		<path fill-rule="evenodd" clip-rule="evenodd" d="M175.008,292.068c-0.98-1.477-2.211-2.648-1.983-3.133
			c0.479-1.01,1.721-1.66,2.65-2.457c0.658,0.836,1.903,1.732,1.824,2.498C177.405,289.893,176.188,290.693,175.008,292.068z"/>
		<path fill-rule="evenodd" clip-rule="evenodd" d="M75.729,78.714c1.9,1.505,2.925,3.076,0.662,4.621
			c-0.545,0.372-2.432-0.193-2.864-0.864C72.09,80.231,74.357,79.752,75.729,78.714z"/>
		<path fill-rule="evenodd" clip-rule="evenodd" d="M315.403,133.643c0.168,0.163,0.336,0.327,0.504,0.49
			c-0.627,1.132-1.186,2.31-1.939,3.346c-0.121,0.167-1.533-0.179-1.621-0.491c-0.291-1.034-0.699-2.458-0.223-3.181
			C312.813,132.764,314.233,132.205,315.403,133.643z"/>
		<path fill-rule="evenodd" clip-rule="evenodd" d="M332.125,119.896c-1.375,0.952-2.34,2.133-3.227,2.074
			c-0.764-0.048-2.08-1.598-1.979-2.318c0.115-0.836,1.465-1.973,2.377-2.07C330.012,117.505,330.875,118.811,332.125,119.896z"/>
		<path fill-rule="evenodd" clip-rule="evenodd" d="M237.263,54.814c0.845,1.902,1.771,3.037,1.651,4.047
			c-0.086,0.728-1.522,1.677-2.439,1.78c-0.548,0.06-1.889-1.473-1.758-2.026C234.979,57.509,236.005,56.582,237.263,54.814z"/>
		<path fill-rule="evenodd" clip-rule="evenodd" d="M190.753,70.431c1.024,1.405,2.232,2.353,2.107,3.064
			c-0.167,0.946-1.376,1.706-2.135,2.547c-0.761-0.737-2.126-1.473-2.123-2.205C188.609,72.898,189.716,71.967,190.753,70.431z"/>
		<path fill-rule="evenodd" clip-rule="evenodd" d="M144.725,24.414c0.941,1.32,2.125,2.266,2.005,2.99
			c-0.16,0.96-1.346,1.747-2.091,2.607c-0.785-0.797-2.168-1.575-2.194-2.396C142.417,26.733,143.663,25.808,144.725,24.414z"/>
		<path fill-rule="evenodd" clip-rule="evenodd" d="M316.915,165.818c-1.479,1.095-2.354,2.222-3.281,2.267
			c-0.701,0.035-2.17-1.451-2.055-2.014c0.188-0.943,1.244-2.13,2.16-2.371C314.387,163.53,315.399,164.75,316.915,165.818z"/>
		<path fill-rule="evenodd" clip-rule="evenodd" d="M114.085,85.932c0.945,1.382,2.149,2.396,1.984,3.079
			c-0.228,0.937-1.491,1.62-2.312,2.412c-0.702-0.775-2-1.594-1.951-2.316C111.871,88.176,113.018,87.319,114.085,85.932z"/>
		<path fill-rule="evenodd" clip-rule="evenodd" d="M114.187,24.309c0.895,1.565,2.038,2.674,1.866,3.508
			c-0.184,0.882-1.62,1.508-2.507,2.246c-0.629-0.857-1.819-1.765-1.745-2.552C111.892,26.567,113.063,25.727,114.187,24.309z"/>
		<path fill-rule="evenodd" clip-rule="evenodd" d="M191.108,285.639c0.855,1.477,1.962,2.551,1.761,3.246
			c-0.268,0.918-1.557,1.543-2.406,2.291c-0.659-0.822-1.911-1.709-1.827-2.445C188.741,287.805,189.941,287.006,191.108,285.639z"
			/>
		<path fill-rule="evenodd" clip-rule="evenodd" d="M257.043,65.966c1.05-0.767,2.02-1.775,3.194-2.161
			c0.398-0.13,1.683,1.245,1.865,2.084c0.128,0.597-0.826,1.979-1.435,2.068c-1.076,0.158-2.259-0.402-3.395-0.663
			C257.196,66.851,257.12,66.407,257.043,65.966z"/>
		<path fill-rule="evenodd" clip-rule="evenodd" d="M134.09,66.028c1.027-0.785,1.968-1.826,3.128-2.221
			c0.418-0.141,1.728,1.174,1.944,2.003c0.151,0.581-0.762,1.978-1.38,2.1c-1.05,0.209-2.242-0.299-3.374-0.509
			C134.302,66.944,134.197,66.486,134.09,66.028z"/>
		<path fill-rule="evenodd" clip-rule="evenodd" d="M124.426,65.842c-1.245,1.064-2.044,2.261-2.979,2.377
			c-0.678,0.083-1.535-1.262-2.312-1.97c0.883-0.857,1.652-1.957,2.707-2.444C122.226,63.626,123.283,64.906,124.426,65.842z"/>
		<path fill-rule="evenodd" clip-rule="evenodd" d="M270.665,73.826c-1.467,0.973-2.396,2.056-3.338,2.063
			c-0.719,0.007-1.45-1.343-2.178-2.091c0.889-0.836,1.665-2.01,2.718-2.36C268.362,71.272,269.384,72.685,270.665,73.826z"/>
		<path fill-rule="evenodd" clip-rule="evenodd" d="M163.206,73.574c-1.379,1.064-2.283,2.302-3.131,2.263
			c-0.827-0.037-1.596-1.378-2.391-2.147c0.807-0.797,1.515-2.04,2.449-2.244C160.81,71.3,161.786,72.534,163.206,73.574z"/>
		<path fill-rule="evenodd" clip-rule="evenodd" d="M68.389,54.942c0.759,1.833,1.519,2.881,1.502,3.917
			c-0.009,0.644-1.24,1.835-1.831,1.779c-1.022-0.093-1.973-0.964-3.32-1.71C66.007,57.544,66.898,56.571,68.389,54.942z"/>
		<path fill-rule="evenodd" clip-rule="evenodd" d="M175.373,39.815c1.015,1.384,2.23,2.346,2.088,3.023
			c-0.197,0.934-1.316,2.088-2.24,2.304c-0.606,0.142-2.302-1.334-2.207-1.851C173.205,42.229,174.272,41.328,175.373,39.815z"/>
		<path fill-rule="evenodd" clip-rule="evenodd" d="M201.476,296.625c-1.453,0.959-2.382,2.033-3.314,2.033
			c-0.734,0-1.467-1.324-2.202-2.059c0.882-0.838,1.647-2.01,2.693-2.365C199.143,294.066,200.167,295.471,201.476,296.625z"/>
		<path fill-rule="evenodd" clip-rule="evenodd" d="M268.796,55.806c0.245,1.141,0.839,2.362,0.601,3.394
			c-0.154,0.667-1.526,1.427-2.355,1.429c-0.534,0.002-1.624-1.419-1.495-1.977c0.261-1.118,1.188-2.082,1.838-3.111
			C267.856,55.63,268.328,55.718,268.796,55.806z"/>
		<path fill-rule="evenodd" clip-rule="evenodd" d="M313.825,101.256c0.922,1.325,2.113,2.291,1.99,3.043
			c-0.156,0.955-1.379,1.736-2.143,2.59c-0.771-0.827-2.139-1.645-2.15-2.483C311.508,103.513,312.776,102.599,313.825,101.256z"/>
		<path fill-rule="evenodd" clip-rule="evenodd" d="M37.825,132.456c0.504,1.083,1.39,2.174,1.371,3.248
			c-0.012,0.644-1.422,1.717-2.235,1.747c-0.648,0.025-1.979-1.333-1.889-1.898c0.179-1.112,1.136-2.097,1.773-3.136
			C37.173,132.43,37.498,132.442,37.825,132.456z"/>
		<path fill-rule="evenodd" clip-rule="evenodd" d="M301.349,73.847c-1.453,0.942-2.389,2.016-3.328,2.014
			c-0.732,0-1.466-1.329-2.199-2.067c0.899-0.835,1.686-1.998,2.746-2.354C299.055,71.277,300.076,72.696,301.349,73.847z"/>
		<path fill-rule="evenodd" clip-rule="evenodd" d="M78.608,65.987c-1.41,1.042-2.281,2.171-3.201,2.215
			c-0.773,0.038-1.605-1.191-2.414-1.861c0.845-0.878,1.559-2.107,2.586-2.488C76.116,63.656,77.205,64.951,78.608,65.987z"/>
		<path fill-rule="evenodd" clip-rule="evenodd" d="M176.432,270.853c0.325,1.137,1.003,2.328,0.839,3.393
			c-0.098,0.627-1.61,1.547-2.337,1.426c-0.736-0.123-1.947-1.57-1.789-2.07c0.36-1.117,1.436-2.008,2.219-2.992
			C175.722,270.689,176.077,270.769,176.432,270.853z"/>
		<path fill-rule="evenodd" clip-rule="evenodd" d="M117.149,42.914c-1.469,1.068-2.345,2.184-3.273,2.233
			c-0.767,0.037-1.597-1.192-2.396-1.861c0.839-0.883,1.547-2.105,2.576-2.51C114.573,40.572,115.674,41.848,117.149,42.914z"/>
		<path fill-rule="evenodd" clip-rule="evenodd" d="M298.324,85.939c0.98,1.371,2.187,2.344,2.044,3.039
			c-0.193,0.926-1.432,1.638-2.221,2.441c-0.709-0.762-1.994-1.536-1.979-2.284C296.184,88.234,297.303,87.354,298.324,85.939z"/>
		<path fill-rule="evenodd" clip-rule="evenodd" d="M175.378,70.461c0.999,1.408,2.183,2.36,2.053,3.069
			c-0.171,0.925-1.276,2.101-2.185,2.316c-0.612,0.146-2.322-1.332-2.224-1.819C173.238,72.936,174.281,72.009,175.378,70.461z"/>
		<path fill-rule="evenodd" clip-rule="evenodd" d="M221.272,77.022c-1.002-1.608-2.123-2.63-1.942-3.306
			c0.252-0.948,1.474-1.636,2.281-2.435c0.692,0.799,1.954,1.619,1.929,2.395C223.509,74.604,222.377,75.493,221.272,77.022z"/>
		<path fill-rule="evenodd" clip-rule="evenodd" d="M270.711,89.085c-1.456,1.047-2.342,2.153-3.276,2.198
			c-0.657,0.03-2.034-1.499-1.921-2.119c0.162-0.906,1.28-2.072,2.176-2.265C268.346,86.757,269.299,88.004,270.711,89.085z"/>
		<path fill-rule="evenodd" clip-rule="evenodd" d="M163.224,43.044c-1.477,0.995-2.414,2.098-3.355,2.103
			c-0.701,0.004-2.088-1.559-1.958-2.163c0.195-0.911,1.371-2.07,2.279-2.221C160.887,40.649,161.816,41.924,163.224,43.044z"/>
		<path fill-rule="evenodd" clip-rule="evenodd" d="M68.128,70.38c0.89,1.545,1.979,2.602,1.789,3.315
			c-0.244,0.914-1.519,1.552-2.351,2.31c-0.653-0.797-1.886-1.654-1.812-2.379C65.849,72.685,66.982,71.85,68.128,70.38z"/>
		<path fill-rule="evenodd" clip-rule="evenodd" d="M301.415,119.868c-1.467,1.001-2.383,2.096-3.307,2.1
			c-0.693,0.002-2.078-1.552-1.94-2.121c0.225-0.93,1.342-2.07,2.265-2.263C299.076,117.45,300.021,118.742,301.415,119.868z"/>
		<path fill-rule="evenodd" clip-rule="evenodd" d="M98.536,76.978c-1.111-1.487-2.34-2.441-2.201-3.116
			c0.195-0.957,1.396-1.708,2.17-2.548c0.755,0.732,2.098,1.45,2.114,2.195C100.638,74.437,99.56,75.387,98.536,76.978z"/>
		<path fill-rule="evenodd" clip-rule="evenodd" d="M40.344,165.821c-1.454,1.076-2.33,2.207-3.262,2.258
			c-0.711,0.039-2.212-1.452-2.094-1.979c0.211-0.958,1.257-2.154,2.172-2.385C37.83,163.548,38.848,164.77,40.344,165.821z"/>
		<path fill-rule="evenodd" clip-rule="evenodd" d="M50.982,121.98c-0.158-1.12-0.607-2.313-0.358-3.333
			c0.135-0.551,1.502-1.159,2.251-1.087c0.623,0.058,1.476,0.996,1.635,1.685c0.149,0.625-0.299,1.758-0.841,2.088
			c-0.76,0.467-1.847,0.397-2.795,0.553C50.873,121.885,50.982,121.98,50.982,121.98z"/>
		<path fill-rule="evenodd" clip-rule="evenodd" d="M111.399,11.689c1.54-0.133,3.081-0.267,4.622-0.402
			c-0.367,0.976-0.609,2.688-1.129,2.779c-1.161,0.2-2.465-0.411-3.71-0.692C111.253,12.814,111.328,12.251,111.399,11.689z"/>
		<path fill-rule="evenodd" clip-rule="evenodd" d="M49.625,74.885c1.252-1.566,2.061-2.577,3.229-4.041
			c0.705,1.105,1.631,2.002,1.777,3.011c0.086,0.595-0.987,1.829-1.682,1.95C52.039,75.963,50.989,75.305,49.625,74.885z"/>
		<path fill-rule="evenodd" clip-rule="evenodd" d="M165.232,19.305c1.482-0.153,2.966-0.307,4.449-0.46
			c-0.309,0.978-0.324,2.307-0.988,2.864c-1.784,1.499-2.574-0.252-3.536-1.23C165.183,20.085,165.207,19.695,165.232,19.305z"/>
		<path fill-rule="evenodd" clip-rule="evenodd" d="M275.103,214.887c0.975-1.221,1.951-2.443,2.927-3.665
			c0.295,0.097,0.588,0.196,0.883,0.296c0.212,0.83,0.859,2.115,0.551,2.412c-0.924,0.9-2.225,1.416-3.376,2.08
			C275.761,215.635,275.43,215.26,275.103,214.887z"/>
		<path fill-rule="evenodd" clip-rule="evenodd" d="M76.715,94.923c-0.84,1.183-1.682,2.362-2.642,3.71
			c-1.492-2.526-1.057-3.286,1.929-4.245C76.239,94.568,76.478,94.747,76.715,94.923z"/>
		<path fill-rule="evenodd" clip-rule="evenodd" fill="#FFFFFF" d="M315.532,196.614c-0.275,6.849-0.555,13.699-0.832,20.549
			c-0.355,0.012-0.709,0.021-1.064,0.035c-0.492-5.709-1.182-11.412-1.313-17.131c-0.025-1.104,2.135-2.258,3.289-3.389
			C315.616,196.68,315.532,196.614,315.532,196.614z"/>
		<path fill-rule="evenodd" clip-rule="evenodd" fill="#FFFFFF" d="M328.288,137.451c0.604-0.128,1.346-0.072,1.781-0.409
			c4.033-3.121,7.141-1.861,8.227,3.236c-1.422,0.535-2.838,1.064-4.713,1.768c-1.188-0.764-2.947-1.82-4.6-3.022
			c-0.396-0.289-0.432-1.073-0.629-1.633C328.358,137.388,328.288,137.451,328.288,137.451z"/>
	</g>
</g>
</svg>
